ISO-10303-21;
HEADER;

/* File generated by Shapr3D Version 26.100.11031.0 */

FILE_DESCRIPTION(('HOOPS Exchange Step'),'2;1');

FILE_NAME('C:\\Users\\cybdo\\AppData\\Local\\Packages\\Shapr3D.Shapr3D_j403pzjkqtqbj\\TempState\\export\\temp_export',
'2026-06-19T12:12:28+10:00',
('cybdo'),
('Shapr3D Limited'),
'HOOPS Exchange 2026.3',
'Shapr3D',
'Authorized');

FILE_SCHEMA( ('AP242_MANAGED_MODEL_BASED_3D_ENGINEERING_MIM_LF {1 0 10303 442 1 1 4}') );

ENDSEC;

DATA;
#3=(NAMED_UNIT(*)PLANE_ANGLE_UNIT()SI_UNIT($,.RADIAN.));
#4=PLANE_ANGLE_MEASURE_WITH_UNIT(PLANE_ANGLE_MEASURE(0.0174532925),#3);
#5=(CONVERSION_BASED_UNIT('DEGREE',#4)NAMED_UNIT(#6)PLANE_ANGLE_UNIT());
#6=DIMENSIONAL_EXPONENTS(0.,0.,0.,0.,0.,0.,0.);
#7=(NAMED_UNIT(*)SI_UNIT($,.STERADIAN.)SOLID_ANGLE_UNIT());
#8=(LENGTH_UNIT()NAMED_UNIT(*)SI_UNIT(.MILLI.,.METRE.));
#9=UNCERTAINTY_MEASURE_WITH_UNIT(LENGTH_MEASURE(1.000000E-05),#8,'DISTANCE_ACCURACY_VALUE','Maximum Tolerance applied to model');
#10=(GEOMETRIC_REPRESENTATION_CONTEXT(3)GLOBAL_UNCERTAINTY_ASSIGNED_CONTEXT((#9))GLOBAL_UNIT_ASSIGNED_CONTEXT((#8,#5,#7))REPRESENTATION_CONTEXT('','root'));
#12=CARTESIAN_POINT('',(0.,0.,0.));
#13=DIRECTION('',(0.,0.,1.));
#14=DIRECTION('',(1.,0.,0.));
#15=AXIS2_PLACEMENT_3D('',#12,#13,#14);
#27=CARTESIAN_POINT('',(-71.,104.499618834,0.103695235));
#28=DIRECTION('',(-1.,0.,-0.));
#29=DIRECTION('',(0.,1.,0.));
#30=AXIS2_PLACEMENT_3D('',#27,#28,#29);
#31=PLANE('',#30);
#32=CARTESIAN_POINT('',(-71.,186.999618834,0.103695235));
#33=VERTEX_POINT('',#32);
#34=CARTESIAN_POINT('',(-71.,21.999618834,0.103695235));
#35=VERTEX_POINT('',#34);
#36=CARTESIAN_POINT('',(-71.,186.999618834,0.103695235));
#37=DIRECTION('',(-0.,-1.,0.));
#38=VECTOR('',#37,165.);
#39=LINE('',#36,#38);
#40=EDGE_CURVE('',#33,#35,#39,.T.);
#41=ORIENTED_EDGE('',*,*,#40,.F.);
#42=CARTESIAN_POINT('',(-71.,186.999618834,20.103695235));
#43=VERTEX_POINT('',#42);
#44=CARTESIAN_POINT('',(-71.,186.999618834,0.103695235));
#45=DIRECTION('',(0.,0.,1.));
#46=VECTOR('',#45,20.);
#47=LINE('',#44,#46);
#48=EDGE_CURVE('',#33,#43,#47,.T.);
#49=ORIENTED_EDGE('',*,*,#48,.T.);
#50=CARTESIAN_POINT('',(-71.,21.999618834,20.103695235));
#51=VERTEX_POINT('',#50);
#52=CARTESIAN_POINT('',(-71.,186.999618834,20.103695235));
#53=DIRECTION('',(-0.,-1.,0.));
#54=VECTOR('',#53,165.);
#55=LINE('',#52,#54);
#56=EDGE_CURVE('',#43,#51,#55,.T.);
#57=ORIENTED_EDGE('',*,*,#56,.T.);
#58=CARTESIAN_POINT('',(-71.,21.999618834,20.103695235));
#59=DIRECTION('',(-0.,-0.,-1.));
#60=VECTOR('',#59,20.);
#61=LINE('',#58,#60);
#62=EDGE_CURVE('',#51,#35,#61,.T.);
#63=ORIENTED_EDGE('',*,*,#62,.T.);
#64=EDGE_LOOP('',(#41,#49,#57,#63));
#65=FACE_BOUND('',#64,.T.);
#66=CARTESIAN_POINT('',(-71.,48.265227464,7.851057789));
#67=VERTEX_POINT('',#66);
#68=CARTESIAN_POINT('',(-71.,48.265227464,1.851057789));
#69=VERTEX_POINT('',#68);
#70=CARTESIAN_POINT('',(-71.,48.265227464,7.851057789));
#71=DIRECTION('',(0.,-0.,-1.));
#72=VECTOR('',#71,6.);
#73=LINE('',#70,#72);
#74=EDGE_CURVE('',#67,#69,#73,.T.);
#75=ORIENTED_EDGE('',*,*,#74,.T.);
#76=CARTESIAN_POINT('',(-71.,28.265227464,1.851057789));
#77=VERTEX_POINT('',#76);
#78=CARTESIAN_POINT('',(-71.,48.265227464,1.851057789));
#79=DIRECTION('',(-0.,-1.,-0.));
#80=VECTOR('',#79,20.);
#81=LINE('',#78,#80);
#82=EDGE_CURVE('',#69,#77,#81,.T.);
#83=ORIENTED_EDGE('',*,*,#82,.T.);
#84=CARTESIAN_POINT('',(-71.,28.265227464,7.851057789));
#85=VERTEX_POINT('',#84);
#86=CARTESIAN_POINT('',(-71.,28.265227464,1.851057789));
#87=DIRECTION('',(-0.,0.,1.));
#88=VECTOR('',#87,6.);
#89=LINE('',#86,#88);
#90=EDGE_CURVE('',#77,#85,#89,.T.);
#91=ORIENTED_EDGE('',*,*,#90,.T.);
#92=CARTESIAN_POINT('',(-71.,28.265227464,7.851057789));
#93=DIRECTION('',(0.,1.,0.));
#94=VECTOR('',#93,20.);
#95=LINE('',#92,#94);
#96=EDGE_CURVE('',#85,#67,#95,.T.);
#97=ORIENTED_EDGE('',*,*,#96,.T.);
#98=EDGE_LOOP('',(#75,#83,#91,#97));
#99=FACE_BOUND('',#98,.T.);
#100=ADVANCED_FACE('',(#65,#99),#31,.F.);
#101=CARTESIAN_POINT('',(-80.1,38.265227464,3.101057789));
#102=DIRECTION('',(0.,0.,-1.));
#103=DIRECTION('',(0.,1.,0.));
#104=AXIS2_PLACEMENT_3D('',#101,#102,#103);
#105=PLANE('',#104);
#106=CARTESIAN_POINT('',(-79.,33.265227464,3.101057789));
#107=VERTEX_POINT('',#106);
#108=CARTESIAN_POINT('',(-79.,43.265227464,3.101057789));
#109=VERTEX_POINT('',#108);
#110=CARTESIAN_POINT('',(-79.,33.265227464,3.101057789));
#111=DIRECTION('',(0.,1.,0.));
#112=VECTOR('',#111,10.);
#113=LINE('',#110,#112);
#114=EDGE_CURVE('',#107,#109,#113,.T.);
#115=ORIENTED_EDGE('',*,*,#114,.T.);
#116=CARTESIAN_POINT('',(-80.,43.265227464,3.101057789));
#117=VERTEX_POINT('',#116);
#118=CARTESIAN_POINT('',(-80.,43.265227464,3.101057789));
#119=DIRECTION('',(1.,-0.,0.));
#120=VECTOR('',#119,1.);
#121=LINE('',#118,#120);
#122=EDGE_CURVE('',#117,#109,#121,.T.);
#123=ORIENTED_EDGE('',*,*,#122,.F.);
#124=CARTESIAN_POINT('',(-80.,33.265227464,3.101057789));
#125=VERTEX_POINT('',#124);
#126=CARTESIAN_POINT('',(-80.,33.265227464,3.101057789));
#127=DIRECTION('',(0.,1.,0.));
#128=VECTOR('',#127,10.);
#129=LINE('',#126,#128);
#130=EDGE_CURVE('',#125,#117,#129,.T.);
#131=ORIENTED_EDGE('',*,*,#130,.F.);
#132=CARTESIAN_POINT('',(-80.,33.265227464,3.101057789));
#133=DIRECTION('',(1.,-0.,0.));
#134=VECTOR('',#133,1.);
#135=LINE('',#132,#134);
#136=EDGE_CURVE('',#125,#107,#135,.T.);
#137=ORIENTED_EDGE('',*,*,#136,.T.);
#138=EDGE_LOOP('',(#115,#123,#131,#137));
#139=FACE_BOUND('',#138,.T.);
#140=ADVANCED_FACE('',(#139),#105,.F.);
#141=CARTESIAN_POINT('',(-80.1,43.265227464,4.851057789));
#142=DIRECTION('',(0.,1.,0.));
#143=DIRECTION('',(-1.,0.,0.));
#144=AXIS2_PLACEMENT_3D('',#141,#142,#143);
#145=PLANE('',#144);
#146=CARTESIAN_POINT('',(-79.,43.265227464,6.601057789));
#147=VERTEX_POINT('',#146);
#148=CARTESIAN_POINT('',(-79.,43.265227464,3.101057789));
#149=DIRECTION('',(-0.,0.,1.));
#150=VECTOR('',#149,3.5);
#151=LINE('',#148,#150);
#152=EDGE_CURVE('',#109,#147,#151,.T.);
#153=ORIENTED_EDGE('',*,*,#152,.T.);
#154=CARTESIAN_POINT('',(-80.,43.265227464,6.601057789));
#155=VERTEX_POINT('',#154);
#156=CARTESIAN_POINT('',(-80.,43.265227464,6.601057789));
#157=DIRECTION('',(1.,-0.,0.));
#158=VECTOR('',#157,1.);
#159=LINE('',#156,#158);
#160=EDGE_CURVE('',#155,#147,#159,.T.);
#161=ORIENTED_EDGE('',*,*,#160,.F.);
#162=CARTESIAN_POINT('',(-80.,43.265227464,3.101057789));
#163=DIRECTION('',(0.,0.,1.));
#164=VECTOR('',#163,3.5);
#165=LINE('',#162,#164);
#166=EDGE_CURVE('',#117,#155,#165,.T.);
#167=ORIENTED_EDGE('',*,*,#166,.F.);
#168=ORIENTED_EDGE('',*,*,#122,.T.);
#169=EDGE_LOOP('',(#153,#161,#167,#168));
#170=FACE_BOUND('',#169,.T.);
#171=ADVANCED_FACE('',(#170),#145,.F.);
#172=CARTESIAN_POINT('',(-80.1,38.265227464,6.601057789));
#173=DIRECTION('',(-0.,-0.,1.));
#174=DIRECTION('',(0.,-1.,-0.));
#175=AXIS2_PLACEMENT_3D('',#172,#173,#174);
#176=PLANE('',#175);
#177=CARTESIAN_POINT('',(-79.,33.265227464,6.601057789));
#178=VERTEX_POINT('',#177);
#179=CARTESIAN_POINT('',(-79.,43.265227464,6.601057789));
#180=DIRECTION('',(-0.,-1.,-0.));
#181=VECTOR('',#180,10.);
#182=LINE('',#179,#181);
#183=EDGE_CURVE('',#147,#178,#182,.T.);
#184=ORIENTED_EDGE('',*,*,#183,.T.);
#185=CARTESIAN_POINT('',(-80.,33.265227464,6.601057789));
#186=VERTEX_POINT('',#185);
#187=CARTESIAN_POINT('',(-80.,33.265227464,6.601057789));
#188=DIRECTION('',(1.,-0.,0.));
#189=VECTOR('',#188,1.);
#190=LINE('',#187,#189);
#191=EDGE_CURVE('',#186,#178,#190,.T.);
#192=ORIENTED_EDGE('',*,*,#191,.F.);
#193=CARTESIAN_POINT('',(-80.,43.265227464,6.601057789));
#194=DIRECTION('',(-0.,-1.,-0.));
#195=VECTOR('',#194,10.);
#196=LINE('',#193,#195);
#197=EDGE_CURVE('',#155,#186,#196,.T.);
#198=ORIENTED_EDGE('',*,*,#197,.F.);
#199=ORIENTED_EDGE('',*,*,#160,.T.);
#200=EDGE_LOOP('',(#184,#192,#198,#199));
#201=FACE_BOUND('',#200,.T.);
#202=ADVANCED_FACE('',(#201),#176,.F.);
#203=CARTESIAN_POINT('',(-80.1,33.265227464,4.851057789));
#204=DIRECTION('',(-0.,-1.,0.));
#205=DIRECTION('',(1.,-0.,0.));
#206=AXIS2_PLACEMENT_3D('',#203,#204,#205);
#207=PLANE('',#206);
#208=CARTESIAN_POINT('',(-79.,33.265227464,6.601057789));
#209=DIRECTION('',(0.,-0.,-1.));
#210=VECTOR('',#209,3.5);
#211=LINE('',#208,#210);
#212=EDGE_CURVE('',#178,#107,#211,.T.);
#213=ORIENTED_EDGE('',*,*,#212,.T.);
#214=ORIENTED_EDGE('',*,*,#136,.F.);
#215=CARTESIAN_POINT('',(-80.,33.265227464,6.601057789));
#216=DIRECTION('',(0.,0.,-1.));
#217=VECTOR('',#216,3.5);
#218=LINE('',#215,#217);
#219=EDGE_CURVE('',#186,#125,#218,.T.);
#220=ORIENTED_EDGE('',*,*,#219,.F.);
#221=ORIENTED_EDGE('',*,*,#191,.T.);
#222=EDGE_LOOP('',(#213,#214,#220,#221));
#223=FACE_BOUND('',#222,.T.);
#224=ADVANCED_FACE('',(#223),#207,.F.);
#225=CARTESIAN_POINT('',(-241.,186.999618834,5.103695235));
#226=DIRECTION('',(0.,0.,-1.));
#227=DIRECTION('',(1.,0.,0.));
#228=AXIS2_PLACEMENT_3D('',#225,#226,#227);
#229=PLANE('',#228);
#230=CARTESIAN_POINT('',(-210.078680937,72.705642178,5.103695235));
#231=VERTEX_POINT('',#230);
#232=CARTESIAN_POINT('',(-200.078680937,72.705642178,5.103695235));
#233=DIRECTION('',(0.,0.,-1.));
#234=DIRECTION('',(-1.,0.,0.));
#235=AXIS2_PLACEMENT_3D('',#232,#233,#234);
#236=CIRCLE('',#235,10.);
#237=EDGE_CURVE('',#231,#231,#236,.T.);
#238=ORIENTED_EDGE('',*,*,#237,.T.);
#239=EDGE_LOOP('',(#238));
#240=FACE_BOUND('',#239,.T.);
#241=CARTESIAN_POINT('',(-226.,40.999618834,5.103695235));
#242=VERTEX_POINT('',#241);
#243=CARTESIAN_POINT('',(-226.,36.999618834,5.103695235));
#244=DIRECTION('',(-0.,-0.,1.));
#245=DIRECTION('',(0.,1.,0.));
#246=AXIS2_PLACEMENT_3D('',#243,#244,#245);
#247=CIRCLE('',#246,4.);
#248=EDGE_CURVE('',#242,#242,#247,.T.);
#249=ORIENTED_EDGE('',*,*,#248,.F.);
#250=EDGE_LOOP('',(#249));
#251=FACE_BOUND('',#250,.T.);
#252=CARTESIAN_POINT('',(-226.,175.999618834,5.103695235));
#253=VERTEX_POINT('',#252);
#254=CARTESIAN_POINT('',(-226.,171.999618834,5.103695235));
#255=DIRECTION('',(-0.,-0.,1.));
#256=DIRECTION('',(0.,1.,0.));
#257=AXIS2_PLACEMENT_3D('',#254,#255,#256);
#258=CIRCLE('',#257,4.);
#259=EDGE_CURVE('',#253,#253,#258,.T.);
#260=ORIENTED_EDGE('',*,*,#259,.F.);
#261=EDGE_LOOP('',(#260));
#262=FACE_BOUND('',#261,.T.);
#263=CARTESIAN_POINT('',(-91.,175.999618834,5.103695235));
#264=VERTEX_POINT('',#263);
#265=CARTESIAN_POINT('',(-91.,171.999618834,5.103695235));
#266=DIRECTION('',(-0.,-0.,1.));
#267=DIRECTION('',(0.,1.,0.));
#268=AXIS2_PLACEMENT_3D('',#265,#266,#267);
#269=CIRCLE('',#268,4.);
#270=EDGE_CURVE('',#264,#264,#269,.T.);
#271=ORIENTED_EDGE('',*,*,#270,.F.);
#272=EDGE_LOOP('',(#271));
#273=FACE_BOUND('',#272,.T.);
#274=CARTESIAN_POINT('',(-91.,60.999618834,5.103695235));
#275=VERTEX_POINT('',#274);
#276=CARTESIAN_POINT('',(-91.,56.999618834,5.103695235));
#277=DIRECTION('',(-0.,-0.,1.));
#278=DIRECTION('',(0.,1.,0.));
#279=AXIS2_PLACEMENT_3D('',#276,#277,#278);
#280=CIRCLE('',#279,4.);
#281=EDGE_CURVE('',#275,#275,#280,.T.);
#282=ORIENTED_EDGE('',*,*,#281,.F.);
#283=EDGE_LOOP('',(#282));
#284=FACE_BOUND('',#283,.T.);
#285=CARTESIAN_POINT('',(-126.921319063,72.705642178,5.103695235));
#286=VERTEX_POINT('',#285);
#287=CARTESIAN_POINT('',(-116.921319063,72.705642178,5.103695235));
#288=DIRECTION('',(0.,0.,-1.));
#289=DIRECTION('',(-1.,0.,0.));
#290=AXIS2_PLACEMENT_3D('',#287,#288,#289);
#291=CIRCLE('',#290,10.);
#292=EDGE_CURVE('',#286,#286,#291,.T.);
#293=ORIENTED_EDGE('',*,*,#292,.T.);
#294=EDGE_LOOP('',(#293));
#295=FACE_BOUND('',#294,.T.);
#296=CARTESIAN_POINT('',(-80.,51.,5.103695235));
#297=VERTEX_POINT('',#296);
#298=CARTESIAN_POINT('',(-115.,51.,5.103695235));
#299=VERTEX_POINT('',#298);
#300=CARTESIAN_POINT('',(-80.,51.,5.103695235));
#301=DIRECTION('',(-1.,0.,0.));
#302=VECTOR('',#301,35.);
#303=LINE('',#300,#302);
#304=EDGE_CURVE('',#297,#299,#303,.T.);
#305=ORIENTED_EDGE('',*,*,#304,.F.);
#306=CARTESIAN_POINT('',(-80.,182.999618834,5.103695235));
#307=VERTEX_POINT('',#306);
#308=CARTESIAN_POINT('',(-80.,51.,5.103695235));
#309=DIRECTION('',(0.,1.,0.));
#310=VECTOR('',#309,131.999618834);
#311=LINE('',#308,#310);
#312=EDGE_CURVE('',#297,#307,#311,.T.);
#313=ORIENTED_EDGE('',*,*,#312,.T.);
#314=CARTESIAN_POINT('',(-237.,182.999618834,5.103695235));
#315=VERTEX_POINT('',#314);
#316=CARTESIAN_POINT('',(-80.,182.999618834,5.103695235));
#317=DIRECTION('',(-1.,0.,-0.));
#318=VECTOR('',#317,157.);
#319=LINE('',#316,#318);
#320=EDGE_CURVE('',#307,#315,#319,.T.);
#321=ORIENTED_EDGE('',*,*,#320,.T.);
#322=CARTESIAN_POINT('',(-237.,25.999618834,5.103695235));
#323=VERTEX_POINT('',#322);
#324=CARTESIAN_POINT('',(-237.,182.999618834,5.103695235));
#325=DIRECTION('',(0.,-1.,0.));
#326=VECTOR('',#325,157.);
#327=LINE('',#324,#326);
#328=EDGE_CURVE('',#315,#323,#327,.T.);
#329=ORIENTED_EDGE('',*,*,#328,.T.);
#330=CARTESIAN_POINT('',(-115.,25.999618834,5.103695235));
#331=VERTEX_POINT('',#330);
#332=CARTESIAN_POINT('',(-237.,25.999618834,5.103695235));
#333=DIRECTION('',(1.,-0.,0.));
#334=VECTOR('',#333,122.);
#335=LINE('',#332,#334);
#336=EDGE_CURVE('',#323,#331,#335,.T.);
#337=ORIENTED_EDGE('',*,*,#336,.T.);
#338=CARTESIAN_POINT('',(-115.,51.,5.103695235));
#339=DIRECTION('',(0.,-1.,0.));
#340=VECTOR('',#339,25.000381166);
#341=LINE('',#338,#340);
#342=EDGE_CURVE('',#299,#331,#341,.T.);
#343=ORIENTED_EDGE('',*,*,#342,.F.);
#344=EDGE_LOOP('',(#305,#313,#321,#329,#337,#343));
#345=FACE_BOUND('',#344,.T.);
#346=ADVANCED_FACE('',(#240,#251,#262,#273,#284,#295,#345),#229,.F.);
#347=CARTESIAN_POINT('',(-158.5,16.999618834,0.103695235));
#348=DIRECTION('',(0.,1.,0.));
#349=DIRECTION('',(0.,0.,1.));
#350=AXIS2_PLACEMENT_3D('',#347,#348,#349);
#351=PLANE('',#350);
#352=CARTESIAN_POINT('',(-76.,16.999618834,0.103695235));
#353=VERTEX_POINT('',#352);
#354=CARTESIAN_POINT('',(-241.,16.999618834,0.103695235));
#355=VERTEX_POINT('',#354);
#356=CARTESIAN_POINT('',(-76.,16.999618834,0.103695235));
#357=DIRECTION('',(-1.,0.,0.));
#358=VECTOR('',#357,165.);
#359=LINE('',#356,#358);
#360=EDGE_CURVE('',#353,#355,#359,.T.);
#361=ORIENTED_EDGE('',*,*,#360,.F.);
#362=CARTESIAN_POINT('',(-76.,16.999618834,20.103695235));
#363=VERTEX_POINT('',#362);
#364=CARTESIAN_POINT('',(-76.,16.999618834,0.103695235));
#365=DIRECTION('',(0.,0.,1.));
#366=VECTOR('',#365,20.);
#367=LINE('',#364,#366);
#368=EDGE_CURVE('',#353,#363,#367,.T.);
#369=ORIENTED_EDGE('',*,*,#368,.T.);
#370=CARTESIAN_POINT('',(-241.,16.999618834,20.103695235));
#371=VERTEX_POINT('',#370);
#372=CARTESIAN_POINT('',(-76.,16.999618834,20.103695235));
#373=DIRECTION('',(-1.,0.,0.));
#374=VECTOR('',#373,165.);
#375=LINE('',#372,#374);
#376=EDGE_CURVE('',#363,#371,#375,.T.);
#377=ORIENTED_EDGE('',*,*,#376,.T.);
#378=CARTESIAN_POINT('',(-241.,16.999618834,20.103695235));
#379=DIRECTION('',(-0.,-0.,-1.));
#380=VECTOR('',#379,20.);
#381=LINE('',#378,#380);
#382=EDGE_CURVE('',#371,#355,#381,.T.);
#383=ORIENTED_EDGE('',*,*,#382,.T.);
#384=EDGE_LOOP('',(#361,#369,#377,#383));
#385=FACE_BOUND('',#384,.T.);
#386=CARTESIAN_POINT('',(-131.1,16.999618834,11.8));
#387=VERTEX_POINT('',#386);
#388=CARTESIAN_POINT('',(-131.1,16.999618834,14.2));
#389=VERTEX_POINT('',#388);
#390=CARTESIAN_POINT('',(-131.1,16.999618834,11.8));
#391=DIRECTION('',(0.,0.,1.));
#392=VECTOR('',#391,2.4);
#393=LINE('',#390,#392);
#394=EDGE_CURVE('',#387,#389,#393,.T.);
#395=ORIENTED_EDGE('',*,*,#394,.F.);
#396=CARTESIAN_POINT('',(-141.9,16.999618834,11.8));
#397=VERTEX_POINT('',#396);
#398=CARTESIAN_POINT('',(-141.9,16.999618834,11.8));
#399=DIRECTION('',(1.,0.,-0.));
#400=VECTOR('',#399,10.8);
#401=LINE('',#398,#400);
#402=EDGE_CURVE('',#397,#387,#401,.T.);
#403=ORIENTED_EDGE('',*,*,#402,.F.);
#404=CARTESIAN_POINT('',(-141.9,16.999618834,14.2));
#405=VERTEX_POINT('',#404);
#406=CARTESIAN_POINT('',(-141.9,16.999618834,14.2));
#407=DIRECTION('',(0.,0.,-1.));
#408=VECTOR('',#407,2.4);
#409=LINE('',#406,#408);
#410=EDGE_CURVE('',#405,#397,#409,.T.);
#411=ORIENTED_EDGE('',*,*,#410,.F.);
#412=CARTESIAN_POINT('',(-131.1,16.999618834,14.2));
#413=DIRECTION('',(-1.,0.,0.));
#414=VECTOR('',#413,10.8);
#415=LINE('',#412,#414);
#416=EDGE_CURVE('',#389,#405,#415,.T.);
#417=ORIENTED_EDGE('',*,*,#416,.F.);
#418=EDGE_LOOP('',(#395,#403,#411,#417));
#419=FACE_BOUND('',#418,.T.);
#420=ADVANCED_FACE('',(#385,#419),#351,.F.);
#421=CARTESIAN_POINT('',(-158.5,25.999618834,5.103695235));
#422=DIRECTION('',(-0.,-1.,0.));
#423=DIRECTION('',(-1.,0.,-0.));
#424=AXIS2_PLACEMENT_3D('',#421,#422,#423);
#425=PLANE('',#424);
#426=CARTESIAN_POINT('',(-237.,25.999618834,20.103695235));
#427=VERTEX_POINT('',#426);
#428=CARTESIAN_POINT('',(-80.,25.999618834,20.103695235));
#429=VERTEX_POINT('',#428);
#430=CARTESIAN_POINT('',(-237.,25.999618834,20.103695235));
#431=DIRECTION('',(1.,-0.,0.));
#432=VECTOR('',#431,157.);
#433=LINE('',#430,#432);
#434=EDGE_CURVE('',#427,#429,#433,.T.);
#435=ORIENTED_EDGE('',*,*,#434,.T.);
#436=CARTESIAN_POINT('',(-80.,25.999618834,2.103695235));
#437=VERTEX_POINT('',#436);
#438=CARTESIAN_POINT('',(-80.,25.999618834,2.103695235));
#439=DIRECTION('',(0.,0.,1.));
#440=VECTOR('',#439,18.);
#441=LINE('',#438,#440);
#442=EDGE_CURVE('',#437,#429,#441,.T.);
#443=ORIENTED_EDGE('',*,*,#442,.F.);
#444=CARTESIAN_POINT('',(-115.,25.999618834,2.103695235));
#445=VERTEX_POINT('',#444);
#446=CARTESIAN_POINT('',(-115.,25.999618834,2.103695235));
#447=DIRECTION('',(1.,0.,-0.));
#448=VECTOR('',#447,35.);
#449=LINE('',#446,#448);
#450=EDGE_CURVE('',#445,#437,#449,.T.);
#451=ORIENTED_EDGE('',*,*,#450,.F.);
#452=CARTESIAN_POINT('',(-115.,25.999618834,2.103695235));
#453=DIRECTION('',(0.,0.,1.));
#454=VECTOR('',#453,3.);
#455=LINE('',#452,#454);
#456=EDGE_CURVE('',#445,#331,#455,.T.);
#457=ORIENTED_EDGE('',*,*,#456,.T.);
#458=ORIENTED_EDGE('',*,*,#336,.F.);
#459=CARTESIAN_POINT('',(-237.,25.999618834,5.103695235));
#460=DIRECTION('',(0.,0.,1.));
#461=VECTOR('',#460,15.);
#462=LINE('',#459,#461);
#463=EDGE_CURVE('',#323,#427,#462,.T.);
#464=ORIENTED_EDGE('',*,*,#463,.T.);
#465=EDGE_LOOP('',(#435,#443,#451,#457,#458,#464));
#466=FACE_BOUND('',#465,.T.);
#467=CARTESIAN_POINT('',(-131.1,25.999618834,14.2));
#468=VERTEX_POINT('',#467);
#469=CARTESIAN_POINT('',(-131.1,25.999618834,11.8));
#470=VERTEX_POINT('',#469);
#471=CARTESIAN_POINT('',(-131.1,25.999618834,14.2));
#472=DIRECTION('',(0.,0.,-1.));
#473=VECTOR('',#472,2.4);
#474=LINE('',#471,#473);
#475=EDGE_CURVE('',#468,#470,#474,.T.);
#476=ORIENTED_EDGE('',*,*,#475,.F.);
#477=CARTESIAN_POINT('',(-141.9,25.999618834,14.2));
#478=VERTEX_POINT('',#477);
#479=CARTESIAN_POINT('',(-141.9,25.999618834,14.2));
#480=DIRECTION('',(1.,-0.,0.));
#481=VECTOR('',#480,10.8);
#482=LINE('',#479,#481);
#483=EDGE_CURVE('',#478,#468,#482,.T.);
#484=ORIENTED_EDGE('',*,*,#483,.F.);
#485=CARTESIAN_POINT('',(-141.9,25.999618834,11.8));
#486=VERTEX_POINT('',#485);
#487=CARTESIAN_POINT('',(-141.9,25.999618834,11.8));
#488=DIRECTION('',(0.,0.,1.));
#489=VECTOR('',#488,2.4);
#490=LINE('',#487,#489);
#491=EDGE_CURVE('',#486,#478,#490,.T.);
#492=ORIENTED_EDGE('',*,*,#491,.F.);
#493=CARTESIAN_POINT('',(-131.1,25.999618834,11.8));
#494=DIRECTION('',(-1.,0.,0.));
#495=VECTOR('',#494,10.8);
#496=LINE('',#493,#495);
#497=EDGE_CURVE('',#470,#486,#496,.T.);
#498=ORIENTED_EDGE('',*,*,#497,.F.);
#499=EDGE_LOOP('',(#476,#484,#492,#498));
#500=FACE_BOUND('',#499,.T.);
#501=ADVANCED_FACE('',(#466,#500),#425,.F.);
#502=CARTESIAN_POINT('',(-200.078680937,72.705642178,6.));
#503=DIRECTION('',(0.,0.,-1.));
#504=DIRECTION('',(-1.,0.,0.));
#505=AXIS2_PLACEMENT_3D('',#502,#503,#504);
#506=CYLINDRICAL_SURFACE('',#505,10.);
#507=CARTESIAN_POINT('',(-210.078680937,72.705642178,0.8));
#508=VERTEX_POINT('',#507);
#509=CARTESIAN_POINT('',(-210.078680937,72.705642178,0.8));
#510=DIRECTION('',(-0.,-0.,1.));
#511=VECTOR('',#510,4.303695235);
#512=LINE('',#509,#511);
#513=EDGE_CURVE('',#508,#231,#512,.T.);
#514=ORIENTED_EDGE('',*,*,#513,.F.);
#515=CARTESIAN_POINT('',(-190.078680937,72.705642178,0.8));
#516=VERTEX_POINT('',#515);
#517=CARTESIAN_POINT('',(-200.078680937,72.705642178,0.8));
#518=DIRECTION('',(0.,0.,-1.));
#519=DIRECTION('',(-1.,0.,0.));
#520=AXIS2_PLACEMENT_3D('',#517,#518,#519);
#521=CIRCLE('',#520,10.);
#522=EDGE_CURVE('',#508,#516,#521,.T.);
#523=ORIENTED_EDGE('',*,*,#522,.T.);
#524=CARTESIAN_POINT('',(-190.078680937,72.705642178,0.103695235));
#525=VERTEX_POINT('',#524);
#526=CARTESIAN_POINT('',(-190.078680937,72.705642178,0.8));
#527=DIRECTION('',(0.,0.,-1.));
#528=VECTOR('',#527,0.696304765);
#529=LINE('',#526,#528);
#530=EDGE_CURVE('',#516,#525,#529,.T.);
#531=ORIENTED_EDGE('',*,*,#530,.T.);
#532=CARTESIAN_POINT('',(-210.078680937,72.705642178,0.103695235));
#533=VERTEX_POINT('',#532);
#534=CARTESIAN_POINT('',(-200.078680937,72.705642178,0.103695235));
#535=DIRECTION('',(0.,0.,-1.));
#536=DIRECTION('',(-1.,0.,0.));
#537=AXIS2_PLACEMENT_3D('',#534,#535,#536);
#538=CIRCLE('',#537,10.);
#539=EDGE_CURVE('',#525,#533,#538,.T.);
#540=ORIENTED_EDGE('',*,*,#539,.T.);
#541=CARTESIAN_POINT('',(-210.078680937,72.705642178,0.8));
#542=DIRECTION('',(0.,0.,-1.));
#543=VECTOR('',#542,0.696304765);
#544=LINE('',#541,#543);
#545=EDGE_CURVE('',#508,#533,#544,.T.);
#546=ORIENTED_EDGE('',*,*,#545,.F.);
#547=ORIENTED_EDGE('',*,*,#513,.T.);
#548=ORIENTED_EDGE('',*,*,#237,.F.);
#549=EDGE_LOOP('',(#514,#523,#531,#540,#546,#547,#548));
#550=FACE_BOUND('',#549,.T.);
#551=ADVANCED_FACE('',(#550),#506,.F.);
#552=CARTESIAN_POINT('',(-241.,186.999618834,0.103695235));
#553=DIRECTION('',(0.,0.,-1.));
#554=DIRECTION('',(1.,0.,0.));
#555=AXIS2_PLACEMENT_3D('',#552,#553,#554);
#556=PLANE('',#555);
#557=CARTESIAN_POINT('',(-106.921319063,72.705642178,0.103695235));
#558=VERTEX_POINT('',#557);
#559=CARTESIAN_POINT('',(-126.921319063,72.705642178,0.103695235));
#560=VERTEX_POINT('',#559);
#561=CARTESIAN_POINT('',(-116.921319063,72.705642178,0.103695235));
#562=DIRECTION('',(0.,0.,-1.));
#563=DIRECTION('',(-1.,0.,0.));
#564=AXIS2_PLACEMENT_3D('',#561,#562,#563);
#565=CIRCLE('',#564,10.);
#566=EDGE_CURVE('',#558,#560,#565,.T.);
#567=ORIENTED_EDGE('',*,*,#566,.F.);
#568=CARTESIAN_POINT('',(-106.921319063,142.705642178,0.103695235));
#569=VERTEX_POINT('',#568);
#570=CARTESIAN_POINT('',(-106.921319063,72.705642178,0.103695235));
#571=DIRECTION('',(0.,1.,0.));
#572=VECTOR('',#571,70.);
#573=LINE('',#570,#572);
#574=EDGE_CURVE('',#558,#569,#573,.T.);
#575=ORIENTED_EDGE('',*,*,#574,.T.);
#576=CARTESIAN_POINT('',(-126.921319063,142.705642178,0.103695235));
#577=VERTEX_POINT('',#576);
#578=CARTESIAN_POINT('',(-106.921319063,142.705642178,0.103695235));
#579=DIRECTION('',(-1.,0.,0.));
#580=VECTOR('',#579,20.);
#581=LINE('',#578,#580);
#582=EDGE_CURVE('',#569,#577,#581,.T.);
#583=ORIENTED_EDGE('',*,*,#582,.T.);
#584=CARTESIAN_POINT('',(-126.921319063,142.705642178,0.103695235));
#585=DIRECTION('',(0.,-1.,0.));
#586=VECTOR('',#585,70.);
#587=LINE('',#584,#586);
#588=EDGE_CURVE('',#577,#560,#587,.T.);
#589=ORIENTED_EDGE('',*,*,#588,.T.);
#590=EDGE_LOOP('',(#567,#575,#583,#589));
#591=FACE_BOUND('',#590,.T.);
#592=ORIENTED_EDGE('',*,*,#539,.F.);
#593=CARTESIAN_POINT('',(-190.078680937,142.705642178,0.103695235));
#594=VERTEX_POINT('',#593);
#595=CARTESIAN_POINT('',(-190.078680937,142.705642178,0.103695235));
#596=DIRECTION('',(0.,-1.,0.));
#597=VECTOR('',#596,70.);
#598=LINE('',#595,#597);
#599=EDGE_CURVE('',#594,#525,#598,.T.);
#600=ORIENTED_EDGE('',*,*,#599,.F.);
#601=CARTESIAN_POINT('',(-210.078680937,142.705642178,0.103695235));
#602=VERTEX_POINT('',#601);
#603=CARTESIAN_POINT('',(-210.078680937,142.705642178,0.103695235));
#604=DIRECTION('',(1.,0.,0.));
#605=VECTOR('',#604,20.);
#606=LINE('',#603,#605);
#607=EDGE_CURVE('',#602,#594,#606,.T.);
#608=ORIENTED_EDGE('',*,*,#607,.F.);
#609=CARTESIAN_POINT('',(-210.078680937,72.705642178,0.103695235));
#610=DIRECTION('',(-0.,1.,0.));
#611=VECTOR('',#610,70.);
#612=LINE('',#609,#611);
#613=EDGE_CURVE('',#533,#602,#612,.T.);
#614=ORIENTED_EDGE('',*,*,#613,.F.);
#615=EDGE_LOOP('',(#592,#600,#608,#614));
#616=FACE_BOUND('',#615,.T.);
#617=CARTESIAN_POINT('',(-241.,191.999618834,0.103695235));
#618=VERTEX_POINT('',#617);
#619=CARTESIAN_POINT('',(-76.,191.999618834,0.103695235));
#620=VERTEX_POINT('',#619);
#621=CARTESIAN_POINT('',(-241.,191.999618834,0.103695235));
#622=DIRECTION('',(1.,0.,-0.));
#623=VECTOR('',#622,165.);
#624=LINE('',#621,#623);
#625=EDGE_CURVE('',#618,#620,#624,.T.);
#626=ORIENTED_EDGE('',*,*,#625,.T.);
#627=CARTESIAN_POINT('',(-76.,186.999618834,0.103695235));
#628=DIRECTION('',(0.,0.,-1.));
#629=DIRECTION('',(1.,0.,0.));
#630=AXIS2_PLACEMENT_3D('',#627,#628,#629);
#631=CIRCLE('',#630,5.);
#632=EDGE_CURVE('',#620,#33,#631,.T.);
#633=ORIENTED_EDGE('',*,*,#632,.T.);
#634=ORIENTED_EDGE('',*,*,#40,.T.);
#635=CARTESIAN_POINT('',(-76.,21.999618834,0.103695235));
#636=DIRECTION('',(0.,0.,-1.));
#637=DIRECTION('',(1.,0.,0.));
#638=AXIS2_PLACEMENT_3D('',#635,#636,#637);
#639=CIRCLE('',#638,5.);
#640=EDGE_CURVE('',#35,#353,#639,.T.);
#641=ORIENTED_EDGE('',*,*,#640,.T.);
#642=ORIENTED_EDGE('',*,*,#360,.T.);
#643=CARTESIAN_POINT('',(-246.,21.999618834,0.103695235));
#644=VERTEX_POINT('',#643);
#645=CARTESIAN_POINT('',(-241.,21.999618834,0.103695235));
#646=DIRECTION('',(0.,0.,-1.));
#647=DIRECTION('',(1.,0.,0.));
#648=AXIS2_PLACEMENT_3D('',#645,#646,#647);
#649=CIRCLE('',#648,5.);
#650=EDGE_CURVE('',#355,#644,#649,.T.);
#651=ORIENTED_EDGE('',*,*,#650,.T.);
#652=CARTESIAN_POINT('',(-246.,186.999618834,0.103695235));
#653=VERTEX_POINT('',#652);
#654=CARTESIAN_POINT('',(-246.,21.999618834,0.103695235));
#655=DIRECTION('',(0.,1.,0.));
#656=VECTOR('',#655,165.);
#657=LINE('',#654,#656);
#658=EDGE_CURVE('',#644,#653,#657,.T.);
#659=ORIENTED_EDGE('',*,*,#658,.T.);
#660=CARTESIAN_POINT('',(-241.,186.999618834,0.103695235));
#661=DIRECTION('',(0.,0.,-1.));
#662=DIRECTION('',(1.,0.,0.));
#663=AXIS2_PLACEMENT_3D('',#660,#661,#662);
#664=CIRCLE('',#663,5.);
#665=EDGE_CURVE('',#653,#618,#664,.T.);
#666=ORIENTED_EDGE('',*,*,#665,.T.);
#667=EDGE_LOOP('',(#626,#633,#634,#641,#642,#651,#659,#666));
#668=FACE_BOUND('',#667,.T.);
#669=ADVANCED_FACE('',(#591,#616,#668),#556,.T.);
#670=CARTESIAN_POINT('',(-158.5,191.999618834,0.103695235));
#671=DIRECTION('',(0.,-1.,0.));
#672=DIRECTION('',(0.,0.,-1.));
#673=AXIS2_PLACEMENT_3D('',#670,#671,#672);
#674=PLANE('',#673);
#675=CARTESIAN_POINT('',(-241.,191.999618834,20.103695235));
#676=VERTEX_POINT('',#675);
#677=CARTESIAN_POINT('',(-76.,191.999618834,20.103695235));
#678=VERTEX_POINT('',#677);
#679=CARTESIAN_POINT('',(-241.,191.999618834,20.103695235));
#680=DIRECTION('',(1.,0.,-0.));
#681=VECTOR('',#680,165.);
#682=LINE('',#679,#681);
#683=EDGE_CURVE('',#676,#678,#682,.T.);
#684=ORIENTED_EDGE('',*,*,#683,.T.);
#685=CARTESIAN_POINT('',(-76.,191.999618834,20.103695235));
#686=DIRECTION('',(-0.,-0.,-1.));
#687=VECTOR('',#686,20.);
#688=LINE('',#685,#687);
#689=EDGE_CURVE('',#678,#620,#688,.T.);
#690=ORIENTED_EDGE('',*,*,#689,.T.);
#691=ORIENTED_EDGE('',*,*,#625,.F.);
#692=CARTESIAN_POINT('',(-241.,191.999618834,0.103695235));
#693=DIRECTION('',(0.,0.,1.));
#694=VECTOR('',#693,20.);
#695=LINE('',#692,#694);
#696=EDGE_CURVE('',#618,#676,#695,.T.);
#697=ORIENTED_EDGE('',*,*,#696,.T.);
#698=EDGE_LOOP('',(#684,#690,#691,#697));
#699=FACE_BOUND('',#698,.T.);
#700=ADVANCED_FACE('',(#699),#674,.F.);
#701=CARTESIAN_POINT('',(-246.,104.499618834,0.103695235));
#702=DIRECTION('',(1.,-0.,0.));
#703=DIRECTION('',(-0.,-1.,0.));
#704=AXIS2_PLACEMENT_3D('',#701,#702,#703);
#705=PLANE('',#704);
#706=ORIENTED_EDGE('',*,*,#658,.F.);
#707=CARTESIAN_POINT('',(-246.,21.999618834,20.103695235));
#708=VERTEX_POINT('',#707);
#709=CARTESIAN_POINT('',(-246.,21.999618834,0.103695235));
#710=DIRECTION('',(0.,0.,1.));
#711=VECTOR('',#710,20.);
#712=LINE('',#709,#711);
#713=EDGE_CURVE('',#644,#708,#712,.T.);
#714=ORIENTED_EDGE('',*,*,#713,.T.);
#715=CARTESIAN_POINT('',(-246.,186.999618834,20.103695235));
#716=VERTEX_POINT('',#715);
#717=CARTESIAN_POINT('',(-246.,21.999618834,20.103695235));
#718=DIRECTION('',(0.,1.,0.));
#719=VECTOR('',#718,165.);
#720=LINE('',#717,#719);
#721=EDGE_CURVE('',#708,#716,#720,.T.);
#722=ORIENTED_EDGE('',*,*,#721,.T.);
#723=CARTESIAN_POINT('',(-246.,186.999618834,20.103695235));
#724=DIRECTION('',(-0.,-0.,-1.));
#725=VECTOR('',#724,20.);
#726=LINE('',#723,#725);
#727=EDGE_CURVE('',#716,#653,#726,.T.);
#728=ORIENTED_EDGE('',*,*,#727,.T.);
#729=EDGE_LOOP('',(#706,#714,#722,#728));
#730=FACE_BOUND('',#729,.T.);
#731=ADVANCED_FACE('',(#730),#705,.F.);
#732=CARTESIAN_POINT('',(-241.,186.999618834,20.103695235));
#733=DIRECTION('',(0.,0.,-1.));
#734=DIRECTION('',(1.,0.,0.));
#735=AXIS2_PLACEMENT_3D('',#732,#733,#734);
#736=PLANE('',#735);
#737=CARTESIAN_POINT('',(-72.75,21.499809417,20.103695235));
#738=VERTEX_POINT('',#737);
#739=CARTESIAN_POINT('',(-78.25,21.499809417,20.103695235));
#740=VERTEX_POINT('',#739);
#741=CARTESIAN_POINT('',(-75.5,21.499809417,20.103695235));
#742=DIRECTION('',(-0.,-0.,1.));
#743=DIRECTION('',(-1.,0.,0.));
#744=AXIS2_PLACEMENT_3D('',#741,#742,#743);
#745=CIRCLE('',#744,2.75);
#746=EDGE_CURVE('',#738,#740,#745,.T.);
#747=ORIENTED_EDGE('',*,*,#746,.F.);
#748=CARTESIAN_POINT('',(-75.5,21.499809417,20.103695235));
#749=DIRECTION('',(-0.,-0.,1.));
#750=DIRECTION('',(-1.,0.,0.));
#751=AXIS2_PLACEMENT_3D('',#748,#749,#750);
#752=CIRCLE('',#751,2.75);
#753=EDGE_CURVE('',#740,#738,#752,.T.);
#754=ORIENTED_EDGE('',*,*,#753,.F.);
#755=EDGE_LOOP('',(#747,#754));
#756=FACE_BOUND('',#755,.T.);
#757=CARTESIAN_POINT('',(-238.75,187.499809417,20.103695235));
#758=VERTEX_POINT('',#757);
#759=CARTESIAN_POINT('',(-244.25,187.499809417,20.103695235));
#760=VERTEX_POINT('',#759);
#761=CARTESIAN_POINT('',(-241.5,187.499809417,20.103695235));
#762=DIRECTION('',(-0.,-0.,1.));
#763=DIRECTION('',(-1.,0.,0.));
#764=AXIS2_PLACEMENT_3D('',#761,#762,#763);
#765=CIRCLE('',#764,2.75);
#766=EDGE_CURVE('',#758,#760,#765,.T.);
#767=ORIENTED_EDGE('',*,*,#766,.F.);
#768=CARTESIAN_POINT('',(-241.5,187.499809417,20.103695235));
#769=DIRECTION('',(-0.,-0.,1.));
#770=DIRECTION('',(-1.,0.,0.));
#771=AXIS2_PLACEMENT_3D('',#768,#769,#770);
#772=CIRCLE('',#771,2.75);
#773=EDGE_CURVE('',#760,#758,#772,.T.);
#774=ORIENTED_EDGE('',*,*,#773,.F.);
#775=EDGE_LOOP('',(#767,#774));
#776=FACE_BOUND('',#775,.T.);
#777=CARTESIAN_POINT('',(-238.75,21.499809417,20.103695235));
#778=VERTEX_POINT('',#777);
#779=CARTESIAN_POINT('',(-244.25,21.499809417,20.103695235));
#780=VERTEX_POINT('',#779);
#781=CARTESIAN_POINT('',(-241.5,21.499809417,20.103695235));
#782=DIRECTION('',(-0.,-0.,1.));
#783=DIRECTION('',(-1.,0.,0.));
#784=AXIS2_PLACEMENT_3D('',#781,#782,#783);
#785=CIRCLE('',#784,2.75);
#786=EDGE_CURVE('',#778,#780,#785,.T.);
#787=ORIENTED_EDGE('',*,*,#786,.F.);
#788=CARTESIAN_POINT('',(-241.5,21.499809417,20.103695235));
#789=DIRECTION('',(-0.,-0.,1.));
#790=DIRECTION('',(-1.,0.,0.));
#791=AXIS2_PLACEMENT_3D('',#788,#789,#790);
#792=CIRCLE('',#791,2.75);
#793=EDGE_CURVE('',#780,#778,#792,.T.);
#794=ORIENTED_EDGE('',*,*,#793,.F.);
#795=EDGE_LOOP('',(#787,#794));
#796=FACE_BOUND('',#795,.T.);
#797=CARTESIAN_POINT('',(-72.75,187.499809417,20.103695235));
#798=VERTEX_POINT('',#797);
#799=CARTESIAN_POINT('',(-78.25,187.499809417,20.103695235));
#800=VERTEX_POINT('',#799);
#801=CARTESIAN_POINT('',(-75.5,187.499809417,20.103695235));
#802=DIRECTION('',(-0.,-0.,1.));
#803=DIRECTION('',(-1.,0.,0.));
#804=AXIS2_PLACEMENT_3D('',#801,#802,#803);
#805=CIRCLE('',#804,2.75);
#806=EDGE_CURVE('',#798,#800,#805,.T.);
#807=ORIENTED_EDGE('',*,*,#806,.F.);
#808=CARTESIAN_POINT('',(-75.5,187.499809417,20.103695235));
#809=DIRECTION('',(-0.,-0.,1.));
#810=DIRECTION('',(-1.,0.,0.));
#811=AXIS2_PLACEMENT_3D('',#808,#809,#810);
#812=CIRCLE('',#811,2.75);
#813=EDGE_CURVE('',#800,#798,#812,.T.);
#814=ORIENTED_EDGE('',*,*,#813,.F.);
#815=EDGE_LOOP('',(#807,#814));
#816=FACE_BOUND('',#815,.T.);
#817=CARTESIAN_POINT('',(-80.,182.999618834,20.103695235));
#818=VERTEX_POINT('',#817);
#819=CARTESIAN_POINT('',(-237.,182.999618834,20.103695235));
#820=VERTEX_POINT('',#819);
#821=CARTESIAN_POINT('',(-80.,182.999618834,20.103695235));
#822=DIRECTION('',(-1.,0.,0.));
#823=VECTOR('',#822,157.);
#824=LINE('',#821,#823);
#825=EDGE_CURVE('',#818,#820,#824,.T.);
#826=ORIENTED_EDGE('',*,*,#825,.F.);
#827=CARTESIAN_POINT('',(-80.,25.999618834,20.103695235));
#828=DIRECTION('',(0.,1.,0.));
#829=VECTOR('',#828,157.);
#830=LINE('',#827,#829);
#831=EDGE_CURVE('',#429,#818,#830,.T.);
#832=ORIENTED_EDGE('',*,*,#831,.F.);
#833=ORIENTED_EDGE('',*,*,#434,.F.);
#834=CARTESIAN_POINT('',(-237.,182.999618834,20.103695235));
#835=DIRECTION('',(0.,-1.,0.));
#836=VECTOR('',#835,157.);
#837=LINE('',#834,#836);
#838=EDGE_CURVE('',#820,#427,#837,.T.);
#839=ORIENTED_EDGE('',*,*,#838,.F.);
#840=EDGE_LOOP('',(#826,#832,#833,#839));
#841=FACE_BOUND('',#840,.T.);
#842=ORIENTED_EDGE('',*,*,#56,.F.);
#843=CARTESIAN_POINT('',(-76.,186.999618834,20.103695235));
#844=DIRECTION('',(-0.,-0.,1.));
#845=DIRECTION('',(-1.,0.,0.));
#846=AXIS2_PLACEMENT_3D('',#843,#844,#845);
#847=CIRCLE('',#846,5.);
#848=EDGE_CURVE('',#43,#678,#847,.T.);
#849=ORIENTED_EDGE('',*,*,#848,.T.);
#850=ORIENTED_EDGE('',*,*,#683,.F.);
#851=CARTESIAN_POINT('',(-241.,186.999618834,20.103695235));
#852=DIRECTION('',(-0.,-0.,1.));
#853=DIRECTION('',(-1.,0.,0.));
#854=AXIS2_PLACEMENT_3D('',#851,#852,#853);
#855=CIRCLE('',#854,5.);
#856=EDGE_CURVE('',#676,#716,#855,.T.);
#857=ORIENTED_EDGE('',*,*,#856,.T.);
#858=ORIENTED_EDGE('',*,*,#721,.F.);
#859=CARTESIAN_POINT('',(-241.,21.999618834,20.103695235));
#860=DIRECTION('',(-0.,-0.,1.));
#861=DIRECTION('',(-1.,0.,0.));
#862=AXIS2_PLACEMENT_3D('',#859,#860,#861);
#863=CIRCLE('',#862,5.);
#864=EDGE_CURVE('',#708,#371,#863,.T.);
#865=ORIENTED_EDGE('',*,*,#864,.T.);
#866=ORIENTED_EDGE('',*,*,#376,.F.);
#867=CARTESIAN_POINT('',(-76.,21.999618834,20.103695235));
#868=DIRECTION('',(-0.,-0.,1.));
#869=DIRECTION('',(-1.,0.,0.));
#870=AXIS2_PLACEMENT_3D('',#867,#868,#869);
#871=CIRCLE('',#870,5.);
#872=EDGE_CURVE('',#363,#51,#871,.T.);
#873=ORIENTED_EDGE('',*,*,#872,.T.);
#874=EDGE_LOOP('',(#842,#849,#850,#857,#858,#865,#866,#873));
#875=FACE_BOUND('',#874,.T.);
#876=ADVANCED_FACE('',(#756,#776,#796,#816,#841,#875),#736,.F.);
#877=CARTESIAN_POINT('',(-241.,186.999618834,0.103695235));
#878=DIRECTION('',(0.,0.,1.));
#879=DIRECTION('',(-1.,0.,0.));
#880=AXIS2_PLACEMENT_3D('',#877,#878,#879);
#881=CYLINDRICAL_SURFACE('',#880,5.);
#882=ORIENTED_EDGE('',*,*,#665,.F.);
#883=ORIENTED_EDGE('',*,*,#727,.F.);
#884=ORIENTED_EDGE('',*,*,#856,.F.);
#885=ORIENTED_EDGE('',*,*,#696,.F.);
#886=EDGE_LOOP('',(#882,#883,#884,#885));
#887=FACE_BOUND('',#886,.T.);
#888=ADVANCED_FACE('',(#887),#881,.T.);
#889=CARTESIAN_POINT('',(-241.,21.999618834,0.103695235));
#890=DIRECTION('',(0.,0.,1.));
#891=DIRECTION('',(-1.,0.,0.));
#892=AXIS2_PLACEMENT_3D('',#889,#890,#891);
#893=CYLINDRICAL_SURFACE('',#892,5.);
#894=ORIENTED_EDGE('',*,*,#650,.F.);
#895=ORIENTED_EDGE('',*,*,#382,.F.);
#896=ORIENTED_EDGE('',*,*,#864,.F.);
#897=ORIENTED_EDGE('',*,*,#713,.F.);
#898=EDGE_LOOP('',(#894,#895,#896,#897));
#899=FACE_BOUND('',#898,.T.);
#900=ADVANCED_FACE('',(#899),#893,.T.);
#901=CARTESIAN_POINT('',(-76.,21.999618834,0.103695235));
#902=DIRECTION('',(0.,0.,1.));
#903=DIRECTION('',(-1.,0.,0.));
#904=AXIS2_PLACEMENT_3D('',#901,#902,#903);
#905=CYLINDRICAL_SURFACE('',#904,5.);
#906=ORIENTED_EDGE('',*,*,#640,.F.);
#907=ORIENTED_EDGE('',*,*,#62,.F.);
#908=ORIENTED_EDGE('',*,*,#872,.F.);
#909=ORIENTED_EDGE('',*,*,#368,.F.);
#910=EDGE_LOOP('',(#906,#907,#908,#909));
#911=FACE_BOUND('',#910,.T.);
#912=ADVANCED_FACE('',(#911),#905,.T.);
#913=CARTESIAN_POINT('',(-76.,186.999618834,0.103695235));
#914=DIRECTION('',(0.,0.,1.));
#915=DIRECTION('',(-1.,0.,0.));
#916=AXIS2_PLACEMENT_3D('',#913,#914,#915);
#917=CYLINDRICAL_SURFACE('',#916,5.);
#918=ORIENTED_EDGE('',*,*,#632,.F.);
#919=ORIENTED_EDGE('',*,*,#689,.F.);
#920=ORIENTED_EDGE('',*,*,#848,.F.);
#921=ORIENTED_EDGE('',*,*,#48,.F.);
#922=EDGE_LOOP('',(#918,#919,#920,#921));
#923=FACE_BOUND('',#922,.T.);
#924=ADVANCED_FACE('',(#923),#917,.T.);
#925=CARTESIAN_POINT('',(-80.,104.499618834,5.103695235));
#926=DIRECTION('',(1.,-0.,0.));
#927=DIRECTION('',(-0.,-1.,0.));
#928=AXIS2_PLACEMENT_3D('',#925,#926,#927);
#929=PLANE('',#928);
#930=ORIENTED_EDGE('',*,*,#219,.T.);
#931=ORIENTED_EDGE('',*,*,#130,.T.);
#932=ORIENTED_EDGE('',*,*,#166,.T.);
#933=ORIENTED_EDGE('',*,*,#197,.T.);
#934=EDGE_LOOP('',(#930,#931,#932,#933));
#935=FACE_BOUND('',#934,.T.);
#936=ORIENTED_EDGE('',*,*,#831,.T.);
#937=CARTESIAN_POINT('',(-80.,182.999618834,5.103695235));
#938=DIRECTION('',(0.,0.,1.));
#939=VECTOR('',#938,15.);
#940=LINE('',#937,#939);
#941=EDGE_CURVE('',#307,#818,#940,.T.);
#942=ORIENTED_EDGE('',*,*,#941,.F.);
#943=ORIENTED_EDGE('',*,*,#312,.F.);
#944=CARTESIAN_POINT('',(-80.,51.,2.103695235));
#945=VERTEX_POINT('',#944);
#946=CARTESIAN_POINT('',(-80.,51.,2.103695235));
#947=DIRECTION('',(0.,0.,1.));
#948=VECTOR('',#947,3.);
#949=LINE('',#946,#948);
#950=EDGE_CURVE('',#945,#297,#949,.T.);
#951=ORIENTED_EDGE('',*,*,#950,.F.);
#952=CARTESIAN_POINT('',(-80.,25.999618834,2.103695235));
#953=DIRECTION('',(0.,1.,0.));
#954=VECTOR('',#953,25.000381166);
#955=LINE('',#952,#954);
#956=EDGE_CURVE('',#437,#945,#955,.T.);
#957=ORIENTED_EDGE('',*,*,#956,.F.);
#958=ORIENTED_EDGE('',*,*,#442,.T.);
#959=EDGE_LOOP('',(#936,#942,#943,#951,#957,#958));
#960=FACE_BOUND('',#959,.T.);
#961=ADVANCED_FACE('',(#935,#960),#929,.F.);
#962=CARTESIAN_POINT('',(-237.,104.499618834,5.103695235));
#963=DIRECTION('',(-1.,0.,0.));
#964=DIRECTION('',(0.,0.,-1.));
#965=AXIS2_PLACEMENT_3D('',#962,#963,#964);
#966=PLANE('',#965);
#967=ORIENTED_EDGE('',*,*,#838,.T.);
#968=ORIENTED_EDGE('',*,*,#463,.F.);
#969=ORIENTED_EDGE('',*,*,#328,.F.);
#970=CARTESIAN_POINT('',(-237.,182.999618834,5.103695235));
#971=DIRECTION('',(0.,0.,1.));
#972=VECTOR('',#971,15.);
#973=LINE('',#970,#972);
#974=EDGE_CURVE('',#315,#820,#973,.T.);
#975=ORIENTED_EDGE('',*,*,#974,.T.);
#976=EDGE_LOOP('',(#967,#968,#969,#975));
#977=FACE_BOUND('',#976,.T.);
#978=ADVANCED_FACE('',(#977),#966,.F.);
#979=CARTESIAN_POINT('',(-158.5,182.999618834,5.103695235));
#980=DIRECTION('',(0.,1.,0.));
#981=DIRECTION('',(1.,-0.,0.));
#982=AXIS2_PLACEMENT_3D('',#979,#980,#981);
#983=PLANE('',#982);
#984=ORIENTED_EDGE('',*,*,#825,.T.);
#985=ORIENTED_EDGE('',*,*,#974,.F.);
#986=ORIENTED_EDGE('',*,*,#320,.F.);
#987=ORIENTED_EDGE('',*,*,#941,.T.);
#988=EDGE_LOOP('',(#984,#985,#986,#987));
#989=FACE_BOUND('',#988,.T.);
#990=ADVANCED_FACE('',(#989),#983,.F.);
#991=CARTESIAN_POINT('',(-91.,56.999618834,10.103695235));
#992=DIRECTION('',(0.,0.,-1.));
#993=DIRECTION('',(0.,1.,0.));
#994=AXIS2_PLACEMENT_3D('',#991,#992,#993);
#995=CYLINDRICAL_SURFACE('',#994,4.);
#996=CARTESIAN_POINT('',(-91.,60.999618834,7.603695235));
#997=VERTEX_POINT('',#996);
#998=CARTESIAN_POINT('',(-91.,60.999618834,5.103695235));
#999=DIRECTION('',(-0.,-0.,1.));
#1000=VECTOR('',#999,2.5);
#1001=LINE('',#998,#1000);
#1002=EDGE_CURVE('',#275,#997,#1001,.T.);
#1003=ORIENTED_EDGE('',*,*,#1002,.T.);
#1004=CARTESIAN_POINT('',(-87.,56.999618834,7.603695235));
#1005=VERTEX_POINT('',#1004);
#1006=CARTESIAN_POINT('',(-91.,56.999618834,7.603695235));
#1007=DIRECTION('',(0.,0.,1.));
#1008=DIRECTION('',(1.,0.,-0.));
#1009=AXIS2_PLACEMENT_3D('',#1006,#1007,#1008);
#1010=CIRCLE('',#1009,4.);
#1011=EDGE_CURVE('',#1005,#997,#1010,.T.);
#1012=ORIENTED_EDGE('',*,*,#1011,.F.);
#1013=CARTESIAN_POINT('',(-91.,56.999618834,7.603695235));
#1014=DIRECTION('',(0.,0.,1.));
#1015=DIRECTION('',(1.,0.,-0.));
#1016=AXIS2_PLACEMENT_3D('',#1013,#1014,#1015);
#1017=CIRCLE('',#1016,4.);
#1018=EDGE_CURVE('',#997,#1005,#1017,.T.);
#1019=ORIENTED_EDGE('',*,*,#1018,.F.);
#1020=ORIENTED_EDGE('',*,*,#1002,.F.);
#1021=ORIENTED_EDGE('',*,*,#281,.T.);
#1022=EDGE_LOOP('',(#1003,#1012,#1019,#1020,#1021));
#1023=FACE_BOUND('',#1022,.T.);
#1024=ADVANCED_FACE('',(#1023),#995,.T.);
#1025=CARTESIAN_POINT('',(-241.,-9.097396084,7.603695235));
#1026=DIRECTION('',(0.,0.,1.));
#1027=DIRECTION('',(1.,0.,0.));
#1028=AXIS2_PLACEMENT_3D('',#1025,#1026,#1027);
#1029=PLANE('',#1028);
#1030=CARTESIAN_POINT('',(-91.,54.949618834,7.603695235));
#1031=VERTEX_POINT('',#1030);
#1032=CARTESIAN_POINT('',(-88.95,56.999618834,7.603695235));
#1033=VERTEX_POINT('',#1032);
#1034=CARTESIAN_POINT('',(-91.,56.999618834,7.603695235));
#1035=DIRECTION('',(0.,0.,1.));
#1036=DIRECTION('',(1.,0.,-0.));
#1037=AXIS2_PLACEMENT_3D('',#1034,#1035,#1036);
#1038=CIRCLE('',#1037,2.05);
#1039=EDGE_CURVE('',#1031,#1033,#1038,.T.);
#1040=ORIENTED_EDGE('',*,*,#1039,.F.);
#1041=CARTESIAN_POINT('',(-91.,56.999618834,7.603695235));
#1042=DIRECTION('',(0.,0.,1.));
#1043=DIRECTION('',(1.,0.,-0.));
#1044=AXIS2_PLACEMENT_3D('',#1041,#1042,#1043);
#1045=CIRCLE('',#1044,2.05);
#1046=EDGE_CURVE('',#1033,#1031,#1045,.T.);
#1047=ORIENTED_EDGE('',*,*,#1046,.F.);
#1048=EDGE_LOOP('',(#1040,#1047));
#1049=FACE_BOUND('',#1048,.T.);
#1050=ORIENTED_EDGE('',*,*,#1011,.T.);
#1051=ORIENTED_EDGE('',*,*,#1018,.T.);
#1052=EDGE_LOOP('',(#1050,#1051));
#1053=FACE_BOUND('',#1052,.T.);
#1054=ADVANCED_FACE('',(#1049,#1053),#1029,.T.);
#1055=CARTESIAN_POINT('',(-91.,171.999618834,10.103695235));
#1056=DIRECTION('',(0.,0.,-1.));
#1057=DIRECTION('',(0.,1.,0.));
#1058=AXIS2_PLACEMENT_3D('',#1055,#1056,#1057);
#1059=CYLINDRICAL_SURFACE('',#1058,4.);
#1060=CARTESIAN_POINT('',(-91.,175.999618834,7.603695235));
#1061=VERTEX_POINT('',#1060);
#1062=CARTESIAN_POINT('',(-91.,175.999618834,5.103695235));
#1063=DIRECTION('',(-0.,-0.,1.));
#1064=VECTOR('',#1063,2.5);
#1065=LINE('',#1062,#1064);
#1066=EDGE_CURVE('',#264,#1061,#1065,.T.);
#1067=ORIENTED_EDGE('',*,*,#1066,.T.);
#1068=CARTESIAN_POINT('',(-87.,171.999618834,7.603695235));
#1069=VERTEX_POINT('',#1068);
#1070=CARTESIAN_POINT('',(-91.,171.999618834,7.603695235));
#1071=DIRECTION('',(0.,0.,1.));
#1072=DIRECTION('',(1.,0.,-0.));
#1073=AXIS2_PLACEMENT_3D('',#1070,#1071,#1072);
#1074=CIRCLE('',#1073,4.);
#1075=EDGE_CURVE('',#1069,#1061,#1074,.T.);
#1076=ORIENTED_EDGE('',*,*,#1075,.F.);
#1077=CARTESIAN_POINT('',(-91.,171.999618834,7.603695235));
#1078=DIRECTION('',(0.,0.,1.));
#1079=DIRECTION('',(1.,0.,-0.));
#1080=AXIS2_PLACEMENT_3D('',#1077,#1078,#1079);
#1081=CIRCLE('',#1080,4.);
#1082=EDGE_CURVE('',#1061,#1069,#1081,.T.);
#1083=ORIENTED_EDGE('',*,*,#1082,.F.);
#1084=ORIENTED_EDGE('',*,*,#1066,.F.);
#1085=ORIENTED_EDGE('',*,*,#270,.T.);
#1086=EDGE_LOOP('',(#1067,#1076,#1083,#1084,#1085));
#1087=FACE_BOUND('',#1086,.T.);
#1088=ADVANCED_FACE('',(#1087),#1059,.T.);
#1089=CARTESIAN_POINT('',(-241.,-9.097396084,7.603695235));
#1090=DIRECTION('',(0.,0.,1.));
#1091=DIRECTION('',(1.,0.,0.));
#1092=AXIS2_PLACEMENT_3D('',#1089,#1090,#1091);
#1093=PLANE('',#1092);
#1094=CARTESIAN_POINT('',(-91.,169.949618834,7.603695235));
#1095=VERTEX_POINT('',#1094);
#1096=CARTESIAN_POINT('',(-88.95,171.999618834,7.603695235));
#1097=VERTEX_POINT('',#1096);
#1098=CARTESIAN_POINT('',(-91.,171.999618834,7.603695235));
#1099=DIRECTION('',(0.,0.,1.));
#1100=DIRECTION('',(1.,0.,-0.));
#1101=AXIS2_PLACEMENT_3D('',#1098,#1099,#1100);
#1102=CIRCLE('',#1101,2.05);
#1103=EDGE_CURVE('',#1095,#1097,#1102,.T.);
#1104=ORIENTED_EDGE('',*,*,#1103,.F.);
#1105=CARTESIAN_POINT('',(-91.,171.999618834,7.603695235));
#1106=DIRECTION('',(0.,0.,1.));
#1107=DIRECTION('',(1.,0.,-0.));
#1108=AXIS2_PLACEMENT_3D('',#1105,#1106,#1107);
#1109=CIRCLE('',#1108,2.05);
#1110=EDGE_CURVE('',#1097,#1095,#1109,.T.);
#1111=ORIENTED_EDGE('',*,*,#1110,.F.);
#1112=EDGE_LOOP('',(#1104,#1111));
#1113=FACE_BOUND('',#1112,.T.);
#1114=ORIENTED_EDGE('',*,*,#1075,.T.);
#1115=ORIENTED_EDGE('',*,*,#1082,.T.);
#1116=EDGE_LOOP('',(#1114,#1115));
#1117=FACE_BOUND('',#1116,.T.);
#1118=ADVANCED_FACE('',(#1113,#1117),#1093,.T.);
#1119=CARTESIAN_POINT('',(-226.,171.999618834,10.103695235));
#1120=DIRECTION('',(0.,0.,-1.));
#1121=DIRECTION('',(0.,1.,0.));
#1122=AXIS2_PLACEMENT_3D('',#1119,#1120,#1121);
#1123=CYLINDRICAL_SURFACE('',#1122,4.);
#1124=CARTESIAN_POINT('',(-226.,175.999618834,7.603695235));
#1125=VERTEX_POINT('',#1124);
#1126=CARTESIAN_POINT('',(-226.,175.999618834,5.103695235));
#1127=DIRECTION('',(-0.,-0.,1.));
#1128=VECTOR('',#1127,2.5);
#1129=LINE('',#1126,#1128);
#1130=EDGE_CURVE('',#253,#1125,#1129,.T.);
#1131=ORIENTED_EDGE('',*,*,#1130,.T.);
#1132=CARTESIAN_POINT('',(-222.,171.999618834,7.603695235));
#1133=VERTEX_POINT('',#1132);
#1134=CARTESIAN_POINT('',(-226.,171.999618834,7.603695235));
#1135=DIRECTION('',(0.,0.,1.));
#1136=DIRECTION('',(1.,0.,-0.));
#1137=AXIS2_PLACEMENT_3D('',#1134,#1135,#1136);
#1138=CIRCLE('',#1137,4.);
#1139=EDGE_CURVE('',#1133,#1125,#1138,.T.);
#1140=ORIENTED_EDGE('',*,*,#1139,.F.);
#1141=CARTESIAN_POINT('',(-226.,171.999618834,7.603695235));
#1142=DIRECTION('',(0.,0.,1.));
#1143=DIRECTION('',(1.,0.,-0.));
#1144=AXIS2_PLACEMENT_3D('',#1141,#1142,#1143);
#1145=CIRCLE('',#1144,4.);
#1146=EDGE_CURVE('',#1125,#1133,#1145,.T.);
#1147=ORIENTED_EDGE('',*,*,#1146,.F.);
#1148=ORIENTED_EDGE('',*,*,#1130,.F.);
#1149=ORIENTED_EDGE('',*,*,#259,.T.);
#1150=EDGE_LOOP('',(#1131,#1140,#1147,#1148,#1149));
#1151=FACE_BOUND('',#1150,.T.);
#1152=ADVANCED_FACE('',(#1151),#1123,.T.);
#1153=CARTESIAN_POINT('',(-241.,-9.097396084,7.603695235));
#1154=DIRECTION('',(0.,0.,1.));
#1155=DIRECTION('',(1.,0.,0.));
#1156=AXIS2_PLACEMENT_3D('',#1153,#1154,#1155);
#1157=PLANE('',#1156);
#1158=CARTESIAN_POINT('',(-226.,169.949618834,7.603695235));
#1159=VERTEX_POINT('',#1158);
#1160=CARTESIAN_POINT('',(-223.95,171.999618834,7.603695235));
#1161=VERTEX_POINT('',#1160);
#1162=CARTESIAN_POINT('',(-226.,171.999618834,7.603695235));
#1163=DIRECTION('',(0.,0.,1.));
#1164=DIRECTION('',(1.,0.,-0.));
#1165=AXIS2_PLACEMENT_3D('',#1162,#1163,#1164);
#1166=CIRCLE('',#1165,2.05);
#1167=EDGE_CURVE('',#1159,#1161,#1166,.T.);
#1168=ORIENTED_EDGE('',*,*,#1167,.F.);
#1169=CARTESIAN_POINT('',(-226.,171.999618834,7.603695235));
#1170=DIRECTION('',(0.,0.,1.));
#1171=DIRECTION('',(1.,0.,-0.));
#1172=AXIS2_PLACEMENT_3D('',#1169,#1170,#1171);
#1173=CIRCLE('',#1172,2.05);
#1174=EDGE_CURVE('',#1161,#1159,#1173,.T.);
#1175=ORIENTED_EDGE('',*,*,#1174,.F.);
#1176=EDGE_LOOP('',(#1168,#1175));
#1177=FACE_BOUND('',#1176,.T.);
#1178=ORIENTED_EDGE('',*,*,#1139,.T.);
#1179=ORIENTED_EDGE('',*,*,#1146,.T.);
#1180=EDGE_LOOP('',(#1178,#1179));
#1181=FACE_BOUND('',#1180,.T.);
#1182=ADVANCED_FACE('',(#1177,#1181),#1157,.T.);
#1183=CARTESIAN_POINT('',(-226.,36.999618834,10.103695235));
#1184=DIRECTION('',(0.,0.,-1.));
#1185=DIRECTION('',(0.,1.,0.));
#1186=AXIS2_PLACEMENT_3D('',#1183,#1184,#1185);
#1187=CYLINDRICAL_SURFACE('',#1186,4.);
#1188=CARTESIAN_POINT('',(-226.,40.999618834,7.603695235));
#1189=VERTEX_POINT('',#1188);
#1190=CARTESIAN_POINT('',(-226.,40.999618834,5.103695235));
#1191=DIRECTION('',(-0.,-0.,1.));
#1192=VECTOR('',#1191,2.5);
#1193=LINE('',#1190,#1192);
#1194=EDGE_CURVE('',#242,#1189,#1193,.T.);
#1195=ORIENTED_EDGE('',*,*,#1194,.T.);
#1196=CARTESIAN_POINT('',(-222.,36.999618834,7.603695235));
#1197=VERTEX_POINT('',#1196);
#1198=CARTESIAN_POINT('',(-226.,36.999618834,7.603695235));
#1199=DIRECTION('',(0.,0.,1.));
#1200=DIRECTION('',(1.,0.,-0.));
#1201=AXIS2_PLACEMENT_3D('',#1198,#1199,#1200);
#1202=CIRCLE('',#1201,4.);
#1203=EDGE_CURVE('',#1197,#1189,#1202,.T.);
#1204=ORIENTED_EDGE('',*,*,#1203,.F.);
#1205=CARTESIAN_POINT('',(-226.,36.999618834,7.603695235));
#1206=DIRECTION('',(0.,0.,1.));
#1207=DIRECTION('',(1.,0.,-0.));
#1208=AXIS2_PLACEMENT_3D('',#1205,#1206,#1207);
#1209=CIRCLE('',#1208,4.);
#1210=EDGE_CURVE('',#1189,#1197,#1209,.T.);
#1211=ORIENTED_EDGE('',*,*,#1210,.F.);
#1212=ORIENTED_EDGE('',*,*,#1194,.F.);
#1213=ORIENTED_EDGE('',*,*,#248,.T.);
#1214=EDGE_LOOP('',(#1195,#1204,#1211,#1212,#1213));
#1215=FACE_BOUND('',#1214,.T.);
#1216=ADVANCED_FACE('',(#1215),#1187,.T.);
#1217=CARTESIAN_POINT('',(-241.,-9.097396084,7.603695235));
#1218=DIRECTION('',(0.,0.,1.));
#1219=DIRECTION('',(1.,0.,0.));
#1220=AXIS2_PLACEMENT_3D('',#1217,#1218,#1219);
#1221=PLANE('',#1220);
#1222=CARTESIAN_POINT('',(-226.,34.949618834,7.603695235));
#1223=VERTEX_POINT('',#1222);
#1224=CARTESIAN_POINT('',(-223.95,36.999618834,7.603695235));
#1225=VERTEX_POINT('',#1224);
#1226=CARTESIAN_POINT('',(-226.,36.999618834,7.603695235));
#1227=DIRECTION('',(0.,0.,1.));
#1228=DIRECTION('',(1.,0.,-0.));
#1229=AXIS2_PLACEMENT_3D('',#1226,#1227,#1228);
#1230=CIRCLE('',#1229,2.05);
#1231=EDGE_CURVE('',#1223,#1225,#1230,.T.);
#1232=ORIENTED_EDGE('',*,*,#1231,.F.);
#1233=CARTESIAN_POINT('',(-226.,36.999618834,7.603695235));
#1234=DIRECTION('',(0.,0.,1.));
#1235=DIRECTION('',(1.,0.,-0.));
#1236=AXIS2_PLACEMENT_3D('',#1233,#1234,#1235);
#1237=CIRCLE('',#1236,2.05);
#1238=EDGE_CURVE('',#1225,#1223,#1237,.T.);
#1239=ORIENTED_EDGE('',*,*,#1238,.F.);
#1240=EDGE_LOOP('',(#1232,#1239));
#1241=FACE_BOUND('',#1240,.T.);
#1242=ORIENTED_EDGE('',*,*,#1203,.T.);
#1243=ORIENTED_EDGE('',*,*,#1210,.T.);
#1244=EDGE_LOOP('',(#1242,#1243));
#1245=FACE_BOUND('',#1244,.T.);
#1246=ADVANCED_FACE('',(#1241,#1245),#1221,.T.);
#1247=CARTESIAN_POINT('',(-91.,56.999618834,3.103695235));
#1248=DIRECTION('',(0.,0.,1.));
#1249=DIRECTION('',(0.,-1.,0.));
#1250=AXIS2_PLACEMENT_3D('',#1247,#1248,#1249);
#1251=CYLINDRICAL_SURFACE('',#1250,2.05);
#1252=CARTESIAN_POINT('',(-91.,54.949618834,3.103695235));
#1253=VERTEX_POINT('',#1252);
#1254=CARTESIAN_POINT('',(-91.,54.949618834,7.603695235));
#1255=DIRECTION('',(-0.,-0.,-1.));
#1256=VECTOR('',#1255,4.5);
#1257=LINE('',#1254,#1256);
#1258=EDGE_CURVE('',#1031,#1253,#1257,.T.);
#1259=ORIENTED_EDGE('',*,*,#1258,.F.);
#1260=ORIENTED_EDGE('',*,*,#1039,.T.);
#1261=ORIENTED_EDGE('',*,*,#1046,.T.);
#1262=ORIENTED_EDGE('',*,*,#1258,.T.);
#1263=CARTESIAN_POINT('',(-88.95,56.999618834,3.103695235));
#1264=VERTEX_POINT('',#1263);
#1265=CARTESIAN_POINT('',(-91.,56.999618834,3.103695235));
#1266=DIRECTION('',(0.,0.,1.));
#1267=DIRECTION('',(1.,0.,-0.));
#1268=AXIS2_PLACEMENT_3D('',#1265,#1266,#1267);
#1269=CIRCLE('',#1268,2.05);
#1270=EDGE_CURVE('',#1264,#1253,#1269,.T.);
#1271=ORIENTED_EDGE('',*,*,#1270,.F.);
#1272=CARTESIAN_POINT('',(-91.,56.999618834,3.103695235));
#1273=DIRECTION('',(0.,0.,1.));
#1274=DIRECTION('',(1.,0.,-0.));
#1275=AXIS2_PLACEMENT_3D('',#1272,#1273,#1274);
#1276=CIRCLE('',#1275,2.05);
#1277=EDGE_CURVE('',#1253,#1264,#1276,.T.);
#1278=ORIENTED_EDGE('',*,*,#1277,.F.);
#1279=EDGE_LOOP('',(#1259,#1260,#1261,#1262,#1271,#1278));
#1280=FACE_BOUND('',#1279,.T.);
#1281=ADVANCED_FACE('',(#1280),#1251,.F.);
#1282=CARTESIAN_POINT('',(-241.,-9.097396084,3.103695235));
#1283=DIRECTION('',(0.,0.,1.));
#1284=DIRECTION('',(1.,0.,0.));
#1285=AXIS2_PLACEMENT_3D('',#1282,#1283,#1284);
#1286=PLANE('',#1285);
#1287=ORIENTED_EDGE('',*,*,#1270,.T.);
#1288=ORIENTED_EDGE('',*,*,#1277,.T.);
#1289=EDGE_LOOP('',(#1287,#1288));
#1290=FACE_BOUND('',#1289,.T.);
#1291=ADVANCED_FACE('',(#1290),#1286,.T.);
#1292=CARTESIAN_POINT('',(-91.,171.999618834,3.103695235));
#1293=DIRECTION('',(0.,0.,1.));
#1294=DIRECTION('',(0.,-1.,0.));
#1295=AXIS2_PLACEMENT_3D('',#1292,#1293,#1294);
#1296=CYLINDRICAL_SURFACE('',#1295,2.05);
#1297=CARTESIAN_POINT('',(-91.,169.949618834,3.103695235));
#1298=VERTEX_POINT('',#1297);
#1299=CARTESIAN_POINT('',(-91.,169.949618834,7.603695235));
#1300=DIRECTION('',(-0.,-0.,-1.));
#1301=VECTOR('',#1300,4.5);
#1302=LINE('',#1299,#1301);
#1303=EDGE_CURVE('',#1095,#1298,#1302,.T.);
#1304=ORIENTED_EDGE('',*,*,#1303,.F.);
#1305=ORIENTED_EDGE('',*,*,#1103,.T.);
#1306=ORIENTED_EDGE('',*,*,#1110,.T.);
#1307=ORIENTED_EDGE('',*,*,#1303,.T.);
#1308=CARTESIAN_POINT('',(-88.95,171.999618834,3.103695235));
#1309=VERTEX_POINT('',#1308);
#1310=CARTESIAN_POINT('',(-91.,171.999618834,3.103695235));
#1311=DIRECTION('',(0.,0.,1.));
#1312=DIRECTION('',(1.,0.,-0.));
#1313=AXIS2_PLACEMENT_3D('',#1310,#1311,#1312);
#1314=CIRCLE('',#1313,2.05);
#1315=EDGE_CURVE('',#1309,#1298,#1314,.T.);
#1316=ORIENTED_EDGE('',*,*,#1315,.F.);
#1317=CARTESIAN_POINT('',(-91.,171.999618834,3.103695235));
#1318=DIRECTION('',(0.,0.,1.));
#1319=DIRECTION('',(1.,0.,-0.));
#1320=AXIS2_PLACEMENT_3D('',#1317,#1318,#1319);
#1321=CIRCLE('',#1320,2.05);
#1322=EDGE_CURVE('',#1298,#1309,#1321,.T.);
#1323=ORIENTED_EDGE('',*,*,#1322,.F.);
#1324=EDGE_LOOP('',(#1304,#1305,#1306,#1307,#1316,#1323));
#1325=FACE_BOUND('',#1324,.T.);
#1326=ADVANCED_FACE('',(#1325),#1296,.F.);
#1327=CARTESIAN_POINT('',(-241.,-9.097396084,3.103695235));
#1328=DIRECTION('',(0.,0.,1.));
#1329=DIRECTION('',(1.,0.,0.));
#1330=AXIS2_PLACEMENT_3D('',#1327,#1328,#1329);
#1331=PLANE('',#1330);
#1332=ORIENTED_EDGE('',*,*,#1315,.T.);
#1333=ORIENTED_EDGE('',*,*,#1322,.T.);
#1334=EDGE_LOOP('',(#1332,#1333));
#1335=FACE_BOUND('',#1334,.T.);
#1336=ADVANCED_FACE('',(#1335),#1331,.T.);
#1337=CARTESIAN_POINT('',(-226.,171.999618834,3.103695235));
#1338=DIRECTION('',(0.,0.,1.));
#1339=DIRECTION('',(0.,-1.,0.));
#1340=AXIS2_PLACEMENT_3D('',#1337,#1338,#1339);
#1341=CYLINDRICAL_SURFACE('',#1340,2.05);
#1342=CARTESIAN_POINT('',(-226.,169.949618834,3.103695235));
#1343=VERTEX_POINT('',#1342);
#1344=CARTESIAN_POINT('',(-226.,169.949618834,7.603695235));
#1345=DIRECTION('',(-0.,-0.,-1.));
#1346=VECTOR('',#1345,4.5);
#1347=LINE('',#1344,#1346);
#1348=EDGE_CURVE('',#1159,#1343,#1347,.T.);
#1349=ORIENTED_EDGE('',*,*,#1348,.F.);
#1350=ORIENTED_EDGE('',*,*,#1167,.T.);
#1351=ORIENTED_EDGE('',*,*,#1174,.T.);
#1352=ORIENTED_EDGE('',*,*,#1348,.T.);
#1353=CARTESIAN_POINT('',(-223.95,171.999618834,3.103695235));
#1354=VERTEX_POINT('',#1353);
#1355=CARTESIAN_POINT('',(-226.,171.999618834,3.103695235));
#1356=DIRECTION('',(0.,0.,1.));
#1357=DIRECTION('',(1.,0.,-0.));
#1358=AXIS2_PLACEMENT_3D('',#1355,#1356,#1357);
#1359=CIRCLE('',#1358,2.05);
#1360=EDGE_CURVE('',#1354,#1343,#1359,.T.);
#1361=ORIENTED_EDGE('',*,*,#1360,.F.);
#1362=CARTESIAN_POINT('',(-226.,171.999618834,3.103695235));
#1363=DIRECTION('',(0.,0.,1.));
#1364=DIRECTION('',(1.,0.,-0.));
#1365=AXIS2_PLACEMENT_3D('',#1362,#1363,#1364);
#1366=CIRCLE('',#1365,2.05);
#1367=EDGE_CURVE('',#1343,#1354,#1366,.T.);
#1368=ORIENTED_EDGE('',*,*,#1367,.F.);
#1369=EDGE_LOOP('',(#1349,#1350,#1351,#1352,#1361,#1368));
#1370=FACE_BOUND('',#1369,.T.);
#1371=ADVANCED_FACE('',(#1370),#1341,.F.);
#1372=CARTESIAN_POINT('',(-241.,-9.097396084,3.103695235));
#1373=DIRECTION('',(0.,0.,1.));
#1374=DIRECTION('',(1.,0.,0.));
#1375=AXIS2_PLACEMENT_3D('',#1372,#1373,#1374);
#1376=PLANE('',#1375);
#1377=ORIENTED_EDGE('',*,*,#1360,.T.);
#1378=ORIENTED_EDGE('',*,*,#1367,.T.);
#1379=EDGE_LOOP('',(#1377,#1378));
#1380=FACE_BOUND('',#1379,.T.);
#1381=ADVANCED_FACE('',(#1380),#1376,.T.);
#1382=CARTESIAN_POINT('',(-226.,36.999618834,3.103695235));
#1383=DIRECTION('',(0.,0.,1.));
#1384=DIRECTION('',(0.,-1.,0.));
#1385=AXIS2_PLACEMENT_3D('',#1382,#1383,#1384);
#1386=CYLINDRICAL_SURFACE('',#1385,2.05);
#1387=CARTESIAN_POINT('',(-226.,34.949618834,3.103695235));
#1388=VERTEX_POINT('',#1387);
#1389=CARTESIAN_POINT('',(-226.,34.949618834,7.603695235));
#1390=DIRECTION('',(-0.,-0.,-1.));
#1391=VECTOR('',#1390,4.5);
#1392=LINE('',#1389,#1391);
#1393=EDGE_CURVE('',#1223,#1388,#1392,.T.);
#1394=ORIENTED_EDGE('',*,*,#1393,.F.);
#1395=ORIENTED_EDGE('',*,*,#1231,.T.);
#1396=ORIENTED_EDGE('',*,*,#1238,.T.);
#1397=ORIENTED_EDGE('',*,*,#1393,.T.);
#1398=CARTESIAN_POINT('',(-223.95,36.999618834,3.103695235));
#1399=VERTEX_POINT('',#1398);
#1400=CARTESIAN_POINT('',(-226.,36.999618834,3.103695235));
#1401=DIRECTION('',(0.,0.,1.));
#1402=DIRECTION('',(1.,0.,-0.));
#1403=AXIS2_PLACEMENT_3D('',#1400,#1401,#1402);
#1404=CIRCLE('',#1403,2.05);
#1405=EDGE_CURVE('',#1399,#1388,#1404,.T.);
#1406=ORIENTED_EDGE('',*,*,#1405,.F.);
#1407=CARTESIAN_POINT('',(-226.,36.999618834,3.103695235));
#1408=DIRECTION('',(0.,0.,1.));
#1409=DIRECTION('',(1.,0.,-0.));
#1410=AXIS2_PLACEMENT_3D('',#1407,#1408,#1409);
#1411=CIRCLE('',#1410,2.05);
#1412=EDGE_CURVE('',#1388,#1399,#1411,.T.);
#1413=ORIENTED_EDGE('',*,*,#1412,.F.);
#1414=EDGE_LOOP('',(#1394,#1395,#1396,#1397,#1406,#1413));
#1415=FACE_BOUND('',#1414,.T.);
#1416=ADVANCED_FACE('',(#1415),#1386,.F.);
#1417=CARTESIAN_POINT('',(-241.,-9.097396084,3.103695235));
#1418=DIRECTION('',(0.,0.,1.));
#1419=DIRECTION('',(1.,0.,0.));
#1420=AXIS2_PLACEMENT_3D('',#1417,#1418,#1419);
#1421=PLANE('',#1420);
#1422=ORIENTED_EDGE('',*,*,#1405,.T.);
#1423=ORIENTED_EDGE('',*,*,#1412,.T.);
#1424=EDGE_LOOP('',(#1422,#1423));
#1425=FACE_BOUND('',#1424,.T.);
#1426=ADVANCED_FACE('',(#1425),#1421,.T.);
#1427=CARTESIAN_POINT('',(-126.921319063,107.705642178,0.8));
#1428=DIRECTION('',(1.,0.,0.));
#1429=DIRECTION('',(-0.,1.,0.));
#1430=AXIS2_PLACEMENT_3D('',#1427,#1428,#1429);
#1431=PLANE('',#1430);
#1432=CARTESIAN_POINT('',(-126.921319063,142.705642178,0.8));
#1433=VERTEX_POINT('',#1432);
#1434=CARTESIAN_POINT('',(-126.921319063,142.705642178,0.8));
#1435=DIRECTION('',(0.,0.,-1.));
#1436=VECTOR('',#1435,0.696304765);
#1437=LINE('',#1434,#1436);
#1438=EDGE_CURVE('',#1433,#577,#1437,.T.);
#1439=ORIENTED_EDGE('',*,*,#1438,.F.);
#1440=CARTESIAN_POINT('',(-126.921319063,72.705642178,0.8));
#1441=VERTEX_POINT('',#1440);
#1442=CARTESIAN_POINT('',(-126.921319063,142.705642178,0.8));
#1443=DIRECTION('',(0.,-1.,0.));
#1444=VECTOR('',#1443,70.);
#1445=LINE('',#1442,#1444);
#1446=EDGE_CURVE('',#1433,#1441,#1445,.T.);
#1447=ORIENTED_EDGE('',*,*,#1446,.T.);
#1448=CARTESIAN_POINT('',(-126.921319063,72.705642178,0.8));
#1449=DIRECTION('',(0.,0.,-1.));
#1450=VECTOR('',#1449,0.696304765);
#1451=LINE('',#1448,#1450);
#1452=EDGE_CURVE('',#1441,#560,#1451,.T.);
#1453=ORIENTED_EDGE('',*,*,#1452,.T.);
#1454=ORIENTED_EDGE('',*,*,#588,.F.);
#1455=EDGE_LOOP('',(#1439,#1447,#1453,#1454));
#1456=FACE_BOUND('',#1455,.T.);
#1457=ADVANCED_FACE('',(#1456),#1431,.T.);
#1458=CARTESIAN_POINT('',(-116.921319063,142.705642178,0.8));
#1459=DIRECTION('',(-0.,-1.,0.));
#1460=DIRECTION('',(1.,-0.,0.));
#1461=AXIS2_PLACEMENT_3D('',#1458,#1459,#1460);
#1462=PLANE('',#1461);
#1463=CARTESIAN_POINT('',(-106.921319063,142.705642178,0.8));
#1464=VERTEX_POINT('',#1463);
#1465=CARTESIAN_POINT('',(-106.921319063,142.705642178,0.8));
#1466=DIRECTION('',(0.,0.,-1.));
#1467=VECTOR('',#1466,0.696304765);
#1468=LINE('',#1465,#1467);
#1469=EDGE_CURVE('',#1464,#569,#1468,.T.);
#1470=ORIENTED_EDGE('',*,*,#1469,.F.);
#1471=CARTESIAN_POINT('',(-106.921319063,142.705642178,0.8));
#1472=DIRECTION('',(-1.,0.,0.));
#1473=VECTOR('',#1472,20.);
#1474=LINE('',#1471,#1473);
#1475=EDGE_CURVE('',#1464,#1433,#1474,.T.);
#1476=ORIENTED_EDGE('',*,*,#1475,.T.);
#1477=ORIENTED_EDGE('',*,*,#1438,.T.);
#1478=ORIENTED_EDGE('',*,*,#582,.F.);
#1479=EDGE_LOOP('',(#1470,#1476,#1477,#1478));
#1480=FACE_BOUND('',#1479,.T.);
#1481=ADVANCED_FACE('',(#1480),#1462,.T.);
#1482=CARTESIAN_POINT('',(-106.921319063,107.705642178,0.8));
#1483=DIRECTION('',(-1.,0.,0.));
#1484=DIRECTION('',(-0.,-1.,0.));
#1485=AXIS2_PLACEMENT_3D('',#1482,#1483,#1484);
#1486=PLANE('',#1485);
#1487=CARTESIAN_POINT('',(-106.921319063,72.705642178,0.8));
#1488=VERTEX_POINT('',#1487);
#1489=CARTESIAN_POINT('',(-106.921319063,72.705642178,0.8));
#1490=DIRECTION('',(0.,0.,-1.));
#1491=VECTOR('',#1490,0.696304765);
#1492=LINE('',#1489,#1491);
#1493=EDGE_CURVE('',#1488,#558,#1492,.T.);
#1494=ORIENTED_EDGE('',*,*,#1493,.F.);
#1495=CARTESIAN_POINT('',(-106.921319063,72.705642178,0.8));
#1496=DIRECTION('',(0.,1.,0.));
#1497=VECTOR('',#1496,70.);
#1498=LINE('',#1495,#1497);
#1499=EDGE_CURVE('',#1488,#1464,#1498,.T.);
#1500=ORIENTED_EDGE('',*,*,#1499,.T.);
#1501=ORIENTED_EDGE('',*,*,#1469,.T.);
#1502=ORIENTED_EDGE('',*,*,#574,.F.);
#1503=EDGE_LOOP('',(#1494,#1500,#1501,#1502));
#1504=FACE_BOUND('',#1503,.T.);
#1505=ADVANCED_FACE('',(#1504),#1486,.T.);
#1506=CARTESIAN_POINT('',(-241.,0.,0.8));
#1507=DIRECTION('',(0.,0.,-1.));
#1508=DIRECTION('',(-1.,0.,0.));
#1509=AXIS2_PLACEMENT_3D('',#1506,#1507,#1508);
#1510=PLANE('',#1509);
#1511=ORIENTED_EDGE('',*,*,#1446,.F.);
#1512=ORIENTED_EDGE('',*,*,#1475,.F.);
#1513=ORIENTED_EDGE('',*,*,#1499,.F.);
#1514=CARTESIAN_POINT('',(-116.921319063,72.705642178,0.8));
#1515=DIRECTION('',(-0.,-0.,1.));
#1516=DIRECTION('',(-1.,0.,0.));
#1517=AXIS2_PLACEMENT_3D('',#1514,#1515,#1516);
#1518=CIRCLE('',#1517,10.);
#1519=EDGE_CURVE('',#1488,#1441,#1518,.T.);
#1520=ORIENTED_EDGE('',*,*,#1519,.T.);
#1521=EDGE_LOOP('',(#1511,#1512,#1513,#1520));
#1522=FACE_BOUND('',#1521,.T.);
#1523=ADVANCED_FACE('',(#1522),#1510,.T.);
#1524=CARTESIAN_POINT('',(-210.078680937,107.705642178,0.8));
#1525=DIRECTION('',(-1.,-0.,0.));
#1526=DIRECTION('',(0.,-1.,0.));
#1527=AXIS2_PLACEMENT_3D('',#1524,#1525,#1526);
#1528=PLANE('',#1527);
#1529=ORIENTED_EDGE('',*,*,#613,.T.);
#1530=CARTESIAN_POINT('',(-210.078680937,142.705642178,0.8));
#1531=VERTEX_POINT('',#1530);
#1532=CARTESIAN_POINT('',(-210.078680937,142.705642178,0.8));
#1533=DIRECTION('',(0.,0.,-1.));
#1534=VECTOR('',#1533,0.696304765);
#1535=LINE('',#1532,#1534);
#1536=EDGE_CURVE('',#1531,#602,#1535,.T.);
#1537=ORIENTED_EDGE('',*,*,#1536,.F.);
#1538=CARTESIAN_POINT('',(-210.078680937,72.705642178,0.8));
#1539=DIRECTION('',(-0.,1.,0.));
#1540=VECTOR('',#1539,70.);
#1541=LINE('',#1538,#1540);
#1542=EDGE_CURVE('',#508,#1531,#1541,.T.);
#1543=ORIENTED_EDGE('',*,*,#1542,.F.);
#1544=ORIENTED_EDGE('',*,*,#545,.T.);
#1545=EDGE_LOOP('',(#1529,#1537,#1543,#1544));
#1546=FACE_BOUND('',#1545,.T.);
#1547=ADVANCED_FACE('',(#1546),#1528,.F.);
#1548=CARTESIAN_POINT('',(-200.078680937,142.705642178,0.8));
#1549=DIRECTION('',(-0.,1.,0.));
#1550=DIRECTION('',(-1.,-0.,0.));
#1551=AXIS2_PLACEMENT_3D('',#1548,#1549,#1550);
#1552=PLANE('',#1551);
#1553=ORIENTED_EDGE('',*,*,#607,.T.);
#1554=CARTESIAN_POINT('',(-190.078680937,142.705642178,0.8));
#1555=VERTEX_POINT('',#1554);
#1556=CARTESIAN_POINT('',(-190.078680937,142.705642178,0.8));
#1557=DIRECTION('',(0.,0.,-1.));
#1558=VECTOR('',#1557,0.696304765);
#1559=LINE('',#1556,#1558);
#1560=EDGE_CURVE('',#1555,#594,#1559,.T.);
#1561=ORIENTED_EDGE('',*,*,#1560,.F.);
#1562=CARTESIAN_POINT('',(-210.078680937,142.705642178,0.8));
#1563=DIRECTION('',(1.,0.,0.));
#1564=VECTOR('',#1563,20.);
#1565=LINE('',#1562,#1564);
#1566=EDGE_CURVE('',#1531,#1555,#1565,.T.);
#1567=ORIENTED_EDGE('',*,*,#1566,.F.);
#1568=ORIENTED_EDGE('',*,*,#1536,.T.);
#1569=EDGE_LOOP('',(#1553,#1561,#1567,#1568));
#1570=FACE_BOUND('',#1569,.T.);
#1571=ADVANCED_FACE('',(#1570),#1552,.F.);
#1572=CARTESIAN_POINT('',(-190.078680937,107.705642178,0.8));
#1573=DIRECTION('',(1.,0.,0.));
#1574=DIRECTION('',(-0.,1.,0.));
#1575=AXIS2_PLACEMENT_3D('',#1572,#1573,#1574);
#1576=PLANE('',#1575);
#1577=ORIENTED_EDGE('',*,*,#599,.T.);
#1578=ORIENTED_EDGE('',*,*,#530,.F.);
#1579=CARTESIAN_POINT('',(-190.078680937,142.705642178,0.8));
#1580=DIRECTION('',(0.,-1.,0.));
#1581=VECTOR('',#1580,70.);
#1582=LINE('',#1579,#1581);
#1583=EDGE_CURVE('',#1555,#516,#1582,.T.);
#1584=ORIENTED_EDGE('',*,*,#1583,.F.);
#1585=ORIENTED_EDGE('',*,*,#1560,.T.);
#1586=EDGE_LOOP('',(#1577,#1578,#1584,#1585));
#1587=FACE_BOUND('',#1586,.T.);
#1588=ADVANCED_FACE('',(#1587),#1576,.F.);
#1589=CARTESIAN_POINT('',(-241.,0.,0.8));
#1590=DIRECTION('',(0.,0.,-1.));
#1591=DIRECTION('',(-1.,0.,0.));
#1592=AXIS2_PLACEMENT_3D('',#1589,#1590,#1591);
#1593=PLANE('',#1592);
#1594=ORIENTED_EDGE('',*,*,#522,.F.);
#1595=ORIENTED_EDGE('',*,*,#1542,.T.);
#1596=ORIENTED_EDGE('',*,*,#1566,.T.);
#1597=ORIENTED_EDGE('',*,*,#1583,.T.);
#1598=EDGE_LOOP('',(#1594,#1595,#1596,#1597));
#1599=FACE_BOUND('',#1598,.T.);
#1600=ADVANCED_FACE('',(#1599),#1593,.T.);
#1601=CARTESIAN_POINT('',(-116.921319063,72.705642178,9.));
#1602=DIRECTION('',(0.,0.,-1.));
#1603=DIRECTION('',(-1.,0.,0.));
#1604=AXIS2_PLACEMENT_3D('',#1601,#1602,#1603);
#1605=CYLINDRICAL_SURFACE('',#1604,10.);
#1606=CARTESIAN_POINT('',(-126.921319063,72.705642178,0.8));
#1607=DIRECTION('',(-0.,-0.,1.));
#1608=VECTOR('',#1607,4.303695235);
#1609=LINE('',#1606,#1608);
#1610=EDGE_CURVE('',#1441,#286,#1609,.T.);
#1611=ORIENTED_EDGE('',*,*,#1610,.F.);
#1612=ORIENTED_EDGE('',*,*,#1519,.F.);
#1613=ORIENTED_EDGE('',*,*,#1493,.T.);
#1614=ORIENTED_EDGE('',*,*,#566,.T.);
#1615=ORIENTED_EDGE('',*,*,#1452,.F.);
#1616=ORIENTED_EDGE('',*,*,#1610,.T.);
#1617=ORIENTED_EDGE('',*,*,#292,.F.);
#1618=EDGE_LOOP('',(#1611,#1612,#1613,#1614,#1615,#1616,#1617));
#1619=FACE_BOUND('',#1618,.T.);
#1620=ADVANCED_FACE('',(#1619),#1605,.F.);
#1621=CARTESIAN_POINT('',(-131.1,47.,13.));
#1622=DIRECTION('',(-1.,0.,0.));
#1623=DIRECTION('',(0.,0.,1.));
#1624=AXIS2_PLACEMENT_3D('',#1621,#1622,#1623);
#1625=PLANE('',#1624);
#1626=ORIENTED_EDGE('',*,*,#394,.T.);
#1627=CARTESIAN_POINT('',(-131.1,25.999618834,14.2));
#1628=DIRECTION('',(0.,-1.,0.));
#1629=VECTOR('',#1628,9.);
#1630=LINE('',#1627,#1629);
#1631=EDGE_CURVE('',#468,#389,#1630,.T.);
#1632=ORIENTED_EDGE('',*,*,#1631,.F.);
#1633=ORIENTED_EDGE('',*,*,#475,.T.);
#1634=CARTESIAN_POINT('',(-131.1,25.999618834,11.8));
#1635=DIRECTION('',(0.,-1.,0.));
#1636=VECTOR('',#1635,9.);
#1637=LINE('',#1634,#1636);
#1638=EDGE_CURVE('',#470,#387,#1637,.T.);
#1639=ORIENTED_EDGE('',*,*,#1638,.T.);
#1640=EDGE_LOOP('',(#1626,#1632,#1633,#1639));
#1641=FACE_BOUND('',#1640,.T.);
#1642=ADVANCED_FACE('',(#1641),#1625,.T.);
#1643=CARTESIAN_POINT('',(-137.,47.,14.2));
#1644=DIRECTION('',(0.,0.,-1.));
#1645=DIRECTION('',(-1.,0.,0.));
#1646=AXIS2_PLACEMENT_3D('',#1643,#1644,#1645);
#1647=PLANE('',#1646);
#1648=ORIENTED_EDGE('',*,*,#416,.T.);
#1649=CARTESIAN_POINT('',(-141.9,25.999618834,14.2));
#1650=DIRECTION('',(0.,-1.,0.));
#1651=VECTOR('',#1650,9.);
#1652=LINE('',#1649,#1651);
#1653=EDGE_CURVE('',#478,#405,#1652,.T.);
#1654=ORIENTED_EDGE('',*,*,#1653,.F.);
#1655=ORIENTED_EDGE('',*,*,#483,.T.);
#1656=ORIENTED_EDGE('',*,*,#1631,.T.);
#1657=EDGE_LOOP('',(#1648,#1654,#1655,#1656));
#1658=FACE_BOUND('',#1657,.T.);
#1659=ADVANCED_FACE('',(#1658),#1647,.T.);
#1660=CARTESIAN_POINT('',(-141.9,47.,13.));
#1661=DIRECTION('',(1.,0.,0.));
#1662=DIRECTION('',(0.,0.,-1.));
#1663=AXIS2_PLACEMENT_3D('',#1660,#1661,#1662);
#1664=PLANE('',#1663);
#1665=ORIENTED_EDGE('',*,*,#410,.T.);
#1666=CARTESIAN_POINT('',(-141.9,25.999618834,11.8));
#1667=DIRECTION('',(0.,-1.,0.));
#1668=VECTOR('',#1667,9.);
#1669=LINE('',#1666,#1668);
#1670=EDGE_CURVE('',#486,#397,#1669,.T.);
#1671=ORIENTED_EDGE('',*,*,#1670,.F.);
#1672=ORIENTED_EDGE('',*,*,#491,.T.);
#1673=ORIENTED_EDGE('',*,*,#1653,.T.);
#1674=EDGE_LOOP('',(#1665,#1671,#1672,#1673));
#1675=FACE_BOUND('',#1674,.T.);
#1676=ADVANCED_FACE('',(#1675),#1664,.T.);
#1677=CARTESIAN_POINT('',(-137.,47.,11.8));
#1678=DIRECTION('',(0.,0.,1.));
#1679=DIRECTION('',(1.,0.,0.));
#1680=AXIS2_PLACEMENT_3D('',#1677,#1678,#1679);
#1681=PLANE('',#1680);
#1682=ORIENTED_EDGE('',*,*,#402,.T.);
#1683=ORIENTED_EDGE('',*,*,#1638,.F.);
#1684=ORIENTED_EDGE('',*,*,#497,.T.);
#1685=ORIENTED_EDGE('',*,*,#1670,.T.);
#1686=EDGE_LOOP('',(#1682,#1683,#1684,#1685));
#1687=FACE_BOUND('',#1686,.T.);
#1688=ADVANCED_FACE('',(#1687),#1681,.T.);
#1689=CARTESIAN_POINT('',(-75.5,187.499809417,12.103695235));
#1690=DIRECTION('',(0.,0.,1.));
#1691=DIRECTION('',(1.,0.,-0.));
#1692=AXIS2_PLACEMENT_3D('',#1689,#1690,#1691);
#1693=CYLINDRICAL_SURFACE('',#1692,2.75);
#1694=CARTESIAN_POINT('',(-72.75,187.499809417,17.103695235));
#1695=VERTEX_POINT('',#1694);
#1696=CARTESIAN_POINT('',(-72.75,187.499809417,20.103695235));
#1697=DIRECTION('',(-0.,-0.,-1.));
#1698=VECTOR('',#1697,3.);
#1699=LINE('',#1696,#1698);
#1700=EDGE_CURVE('',#798,#1695,#1699,.T.);
#1701=ORIENTED_EDGE('',*,*,#1700,.F.);
#1702=ORIENTED_EDGE('',*,*,#806,.T.);
#1703=ORIENTED_EDGE('',*,*,#813,.T.);
#1704=ORIENTED_EDGE('',*,*,#1700,.T.);
#1705=CARTESIAN_POINT('',(-75.5,187.499809417,17.103695235));
#1706=DIRECTION('',(0.,0.,1.));
#1707=DIRECTION('',(1.,0.,-0.));
#1708=AXIS2_PLACEMENT_3D('',#1705,#1706,#1707);
#1709=CIRCLE('',#1708,2.75);
#1710=EDGE_CURVE('',#1695,#1695,#1709,.T.);
#1711=ORIENTED_EDGE('',*,*,#1710,.F.);
#1712=EDGE_LOOP('',(#1701,#1702,#1703,#1704,#1711));
#1713=FACE_BOUND('',#1712,.T.);
#1714=ADVANCED_FACE('',(#1713),#1693,.F.);
#1715=CARTESIAN_POINT('',(-241.,0.,17.103695235));
#1716=DIRECTION('',(0.,0.,1.));
#1717=DIRECTION('',(1.,0.,0.));
#1718=AXIS2_PLACEMENT_3D('',#1715,#1716,#1717);
#1719=PLANE('',#1718);
#1720=ORIENTED_EDGE('',*,*,#1710,.T.);
#1721=EDGE_LOOP('',(#1720));
#1722=FACE_BOUND('',#1721,.T.);
#1723=ADVANCED_FACE('',(#1722),#1719,.T.);
#1724=CARTESIAN_POINT('',(-241.5,21.499809417,12.103695235));
#1725=DIRECTION('',(0.,0.,1.));
#1726=DIRECTION('',(1.,0.,-0.));
#1727=AXIS2_PLACEMENT_3D('',#1724,#1725,#1726);
#1728=CYLINDRICAL_SURFACE('',#1727,2.75);
#1729=CARTESIAN_POINT('',(-238.75,21.499809417,17.103695235));
#1730=VERTEX_POINT('',#1729);
#1731=CARTESIAN_POINT('',(-238.75,21.499809417,20.103695235));
#1732=DIRECTION('',(-0.,-0.,-1.));
#1733=VECTOR('',#1732,3.);
#1734=LINE('',#1731,#1733);
#1735=EDGE_CURVE('',#778,#1730,#1734,.T.);
#1736=ORIENTED_EDGE('',*,*,#1735,.F.);
#1737=ORIENTED_EDGE('',*,*,#786,.T.);
#1738=ORIENTED_EDGE('',*,*,#793,.T.);
#1739=ORIENTED_EDGE('',*,*,#1735,.T.);
#1740=CARTESIAN_POINT('',(-241.5,21.499809417,17.103695235));
#1741=DIRECTION('',(0.,0.,1.));
#1742=DIRECTION('',(1.,0.,-0.));
#1743=AXIS2_PLACEMENT_3D('',#1740,#1741,#1742);
#1744=CIRCLE('',#1743,2.75);
#1745=EDGE_CURVE('',#1730,#1730,#1744,.T.);
#1746=ORIENTED_EDGE('',*,*,#1745,.F.);
#1747=EDGE_LOOP('',(#1736,#1737,#1738,#1739,#1746));
#1748=FACE_BOUND('',#1747,.T.);
#1749=ADVANCED_FACE('',(#1748),#1728,.F.);
#1750=CARTESIAN_POINT('',(-241.,0.,17.103695235));
#1751=DIRECTION('',(0.,0.,1.));
#1752=DIRECTION('',(1.,0.,0.));
#1753=AXIS2_PLACEMENT_3D('',#1750,#1751,#1752);
#1754=PLANE('',#1753);
#1755=ORIENTED_EDGE('',*,*,#1745,.T.);
#1756=EDGE_LOOP('',(#1755));
#1757=FACE_BOUND('',#1756,.T.);
#1758=ADVANCED_FACE('',(#1757),#1754,.T.);
#1759=CARTESIAN_POINT('',(-241.5,187.499809417,12.103695235));
#1760=DIRECTION('',(0.,0.,1.));
#1761=DIRECTION('',(1.,0.,-0.));
#1762=AXIS2_PLACEMENT_3D('',#1759,#1760,#1761);
#1763=CYLINDRICAL_SURFACE('',#1762,2.75);
#1764=CARTESIAN_POINT('',(-238.75,187.499809417,17.103695235));
#1765=VERTEX_POINT('',#1764);
#1766=CARTESIAN_POINT('',(-238.75,187.499809417,20.103695235));
#1767=DIRECTION('',(-0.,-0.,-1.));
#1768=VECTOR('',#1767,3.);
#1769=LINE('',#1766,#1768);
#1770=EDGE_CURVE('',#758,#1765,#1769,.T.);
#1771=ORIENTED_EDGE('',*,*,#1770,.F.);
#1772=ORIENTED_EDGE('',*,*,#766,.T.);
#1773=ORIENTED_EDGE('',*,*,#773,.T.);
#1774=ORIENTED_EDGE('',*,*,#1770,.T.);
#1775=CARTESIAN_POINT('',(-241.5,187.499809417,17.103695235));
#1776=DIRECTION('',(0.,0.,1.));
#1777=DIRECTION('',(1.,0.,-0.));
#1778=AXIS2_PLACEMENT_3D('',#1775,#1776,#1777);
#1779=CIRCLE('',#1778,2.75);
#1780=EDGE_CURVE('',#1765,#1765,#1779,.T.);
#1781=ORIENTED_EDGE('',*,*,#1780,.F.);
#1782=EDGE_LOOP('',(#1771,#1772,#1773,#1774,#1781));
#1783=FACE_BOUND('',#1782,.T.);
#1784=ADVANCED_FACE('',(#1783),#1763,.F.);
#1785=CARTESIAN_POINT('',(-241.,0.,17.103695235));
#1786=DIRECTION('',(0.,0.,1.));
#1787=DIRECTION('',(1.,0.,0.));
#1788=AXIS2_PLACEMENT_3D('',#1785,#1786,#1787);
#1789=PLANE('',#1788);
#1790=ORIENTED_EDGE('',*,*,#1780,.T.);
#1791=EDGE_LOOP('',(#1790));
#1792=FACE_BOUND('',#1791,.T.);
#1793=ADVANCED_FACE('',(#1792),#1789,.T.);
#1794=CARTESIAN_POINT('',(-75.5,21.499809417,12.103695235));
#1795=DIRECTION('',(0.,0.,1.));
#1796=DIRECTION('',(1.,0.,-0.));
#1797=AXIS2_PLACEMENT_3D('',#1794,#1795,#1796);
#1798=CYLINDRICAL_SURFACE('',#1797,2.75);
#1799=CARTESIAN_POINT('',(-72.75,21.499809417,17.103695235));
#1800=VERTEX_POINT('',#1799);
#1801=CARTESIAN_POINT('',(-72.75,21.499809417,20.103695235));
#1802=DIRECTION('',(-0.,-0.,-1.));
#1803=VECTOR('',#1802,3.);
#1804=LINE('',#1801,#1803);
#1805=EDGE_CURVE('',#738,#1800,#1804,.T.);
#1806=ORIENTED_EDGE('',*,*,#1805,.F.);
#1807=ORIENTED_EDGE('',*,*,#746,.T.);
#1808=ORIENTED_EDGE('',*,*,#753,.T.);
#1809=ORIENTED_EDGE('',*,*,#1805,.T.);
#1810=CARTESIAN_POINT('',(-75.5,21.499809417,17.103695235));
#1811=DIRECTION('',(0.,0.,1.));
#1812=DIRECTION('',(1.,0.,-0.));
#1813=AXIS2_PLACEMENT_3D('',#1810,#1811,#1812);
#1814=CIRCLE('',#1813,2.75);
#1815=EDGE_CURVE('',#1800,#1800,#1814,.T.);
#1816=ORIENTED_EDGE('',*,*,#1815,.F.);
#1817=EDGE_LOOP('',(#1806,#1807,#1808,#1809,#1816));
#1818=FACE_BOUND('',#1817,.T.);
#1819=ADVANCED_FACE('',(#1818),#1798,.F.);
#1820=CARTESIAN_POINT('',(-241.,0.,17.103695235));
#1821=DIRECTION('',(0.,0.,1.));
#1822=DIRECTION('',(1.,0.,0.));
#1823=AXIS2_PLACEMENT_3D('',#1820,#1821,#1822);
#1824=PLANE('',#1823);
#1825=ORIENTED_EDGE('',*,*,#1815,.T.);
#1826=EDGE_LOOP('',(#1825));
#1827=FACE_BOUND('',#1826,.T.);
#1828=ADVANCED_FACE('',(#1827),#1824,.T.);
#1829=CARTESIAN_POINT('',(-97.5,51.,2.103695235));
#1830=DIRECTION('',(0.,1.,0.));
#1831=DIRECTION('',(0.,0.,1.));
#1832=AXIS2_PLACEMENT_3D('',#1829,#1830,#1831);
#1833=PLANE('',#1832);
#1834=ORIENTED_EDGE('',*,*,#304,.T.);
#1835=CARTESIAN_POINT('',(-115.,51.,2.103695235));
#1836=VERTEX_POINT('',#1835);
#1837=CARTESIAN_POINT('',(-115.,51.,2.103695235));
#1838=DIRECTION('',(0.,0.,1.));
#1839=VECTOR('',#1838,3.);
#1840=LINE('',#1837,#1839);
#1841=EDGE_CURVE('',#1836,#299,#1840,.T.);
#1842=ORIENTED_EDGE('',*,*,#1841,.F.);
#1843=CARTESIAN_POINT('',(-80.,51.,2.103695235));
#1844=DIRECTION('',(-1.,0.,0.));
#1845=VECTOR('',#1844,35.);
#1846=LINE('',#1843,#1845);
#1847=EDGE_CURVE('',#945,#1836,#1846,.T.);
#1848=ORIENTED_EDGE('',*,*,#1847,.F.);
#1849=ORIENTED_EDGE('',*,*,#950,.T.);
#1850=EDGE_LOOP('',(#1834,#1842,#1848,#1849));
#1851=FACE_BOUND('',#1850,.T.);
#1852=ADVANCED_FACE('',(#1851),#1833,.F.);
#1853=CARTESIAN_POINT('',(-115.,38.499809417,2.103695235));
#1854=DIRECTION('',(-1.,0.,0.));
#1855=DIRECTION('',(0.,0.,1.));
#1856=AXIS2_PLACEMENT_3D('',#1853,#1854,#1855);
#1857=PLANE('',#1856);
#1858=ORIENTED_EDGE('',*,*,#342,.T.);
#1859=ORIENTED_EDGE('',*,*,#456,.F.);
#1860=CARTESIAN_POINT('',(-115.,51.,2.103695235));
#1861=DIRECTION('',(0.,-1.,0.));
#1862=VECTOR('',#1861,25.000381166);
#1863=LINE('',#1860,#1862);
#1864=EDGE_CURVE('',#1836,#445,#1863,.T.);
#1865=ORIENTED_EDGE('',*,*,#1864,.F.);
#1866=ORIENTED_EDGE('',*,*,#1841,.T.);
#1867=EDGE_LOOP('',(#1858,#1859,#1865,#1866));
#1868=FACE_BOUND('',#1867,.T.);
#1869=ADVANCED_FACE('',(#1868),#1857,.F.);
#1870=CARTESIAN_POINT('',(-241.,0.,2.103695235));
#1871=DIRECTION('',(0.,0.,1.));
#1872=DIRECTION('',(0.,1.,0.));
#1873=AXIS2_PLACEMENT_3D('',#1870,#1871,#1872);
#1874=PLANE('',#1873);
#1875=ORIENTED_EDGE('',*,*,#956,.T.);
#1876=ORIENTED_EDGE('',*,*,#1847,.T.);
#1877=ORIENTED_EDGE('',*,*,#1864,.T.);
#1878=ORIENTED_EDGE('',*,*,#450,.T.);
#1879=EDGE_LOOP('',(#1875,#1876,#1877,#1878));
#1880=FACE_BOUND('',#1879,.T.);
#1881=ADVANCED_FACE('',(#1880),#1874,.T.);
#1882=CARTESIAN_POINT('',(-78.5,48.265227464,4.851057789));
#1883=DIRECTION('',(-0.,-1.,0.));
#1884=DIRECTION('',(1.,-0.,0.));
#1885=AXIS2_PLACEMENT_3D('',#1882,#1883,#1884);
#1886=PLANE('',#1885);
#1887=ORIENTED_EDGE('',*,*,#74,.F.);
#1888=CARTESIAN_POINT('',(-79.,48.265227464,7.851057789));
#1889=VERTEX_POINT('',#1888);
#1890=CARTESIAN_POINT('',(-79.,48.265227464,7.851057789));
#1891=DIRECTION('',(1.,-0.,0.));
#1892=VECTOR('',#1891,8.);
#1893=LINE('',#1890,#1892);
#1894=EDGE_CURVE('',#1889,#67,#1893,.T.);
#1895=ORIENTED_EDGE('',*,*,#1894,.F.);
#1896=CARTESIAN_POINT('',(-79.,48.265227464,1.851057789));
#1897=VERTEX_POINT('',#1896);
#1898=CARTESIAN_POINT('',(-79.,48.265227464,7.851057789));
#1899=DIRECTION('',(0.,-0.,-1.));
#1900=VECTOR('',#1899,6.);
#1901=LINE('',#1898,#1900);
#1902=EDGE_CURVE('',#1889,#1897,#1901,.T.);
#1903=ORIENTED_EDGE('',*,*,#1902,.T.);
#1904=CARTESIAN_POINT('',(-79.,48.265227464,1.851057789));
#1905=DIRECTION('',(1.,-0.,0.));
#1906=VECTOR('',#1905,8.);
#1907=LINE('',#1904,#1906);
#1908=EDGE_CURVE('',#1897,#69,#1907,.T.);
#1909=ORIENTED_EDGE('',*,*,#1908,.T.);
#1910=EDGE_LOOP('',(#1887,#1895,#1903,#1909));
#1911=FACE_BOUND('',#1910,.T.);
#1912=ADVANCED_FACE('',(#1911),#1886,.T.);
#1913=CARTESIAN_POINT('',(-78.5,38.265227464,7.851057789));
#1914=DIRECTION('',(0.,0.,-1.));
#1915=DIRECTION('',(0.,1.,0.));
#1916=AXIS2_PLACEMENT_3D('',#1913,#1914,#1915);
#1917=PLANE('',#1916);
#1918=ORIENTED_EDGE('',*,*,#96,.F.);
#1919=CARTESIAN_POINT('',(-79.,28.265227464,7.851057789));
#1920=VERTEX_POINT('',#1919);
#1921=CARTESIAN_POINT('',(-79.,28.265227464,7.851057789));
#1922=DIRECTION('',(1.,-0.,0.));
#1923=VECTOR('',#1922,8.);
#1924=LINE('',#1921,#1923);
#1925=EDGE_CURVE('',#1920,#85,#1924,.T.);
#1926=ORIENTED_EDGE('',*,*,#1925,.F.);
#1927=CARTESIAN_POINT('',(-79.,28.265227464,7.851057789));
#1928=DIRECTION('',(0.,1.,0.));
#1929=VECTOR('',#1928,20.);
#1930=LINE('',#1927,#1929);
#1931=EDGE_CURVE('',#1920,#1889,#1930,.T.);
#1932=ORIENTED_EDGE('',*,*,#1931,.T.);
#1933=ORIENTED_EDGE('',*,*,#1894,.T.);
#1934=EDGE_LOOP('',(#1918,#1926,#1932,#1933));
#1935=FACE_BOUND('',#1934,.T.);
#1936=ADVANCED_FACE('',(#1935),#1917,.T.);
#1937=CARTESIAN_POINT('',(-78.5,28.265227464,4.851057789));
#1938=DIRECTION('',(0.,1.,0.));
#1939=DIRECTION('',(-1.,0.,0.));
#1940=AXIS2_PLACEMENT_3D('',#1937,#1938,#1939);
#1941=PLANE('',#1940);
#1942=ORIENTED_EDGE('',*,*,#90,.F.);
#1943=CARTESIAN_POINT('',(-79.,28.265227464,1.851057789));
#1944=VERTEX_POINT('',#1943);
#1945=CARTESIAN_POINT('',(-79.,28.265227464,1.851057789));
#1946=DIRECTION('',(1.,-0.,0.));
#1947=VECTOR('',#1946,8.);
#1948=LINE('',#1945,#1947);
#1949=EDGE_CURVE('',#1944,#77,#1948,.T.);
#1950=ORIENTED_EDGE('',*,*,#1949,.F.);
#1951=CARTESIAN_POINT('',(-79.,28.265227464,1.851057789));
#1952=DIRECTION('',(-0.,0.,1.));
#1953=VECTOR('',#1952,6.);
#1954=LINE('',#1951,#1953);
#1955=EDGE_CURVE('',#1944,#1920,#1954,.T.);
#1956=ORIENTED_EDGE('',*,*,#1955,.T.);
#1957=ORIENTED_EDGE('',*,*,#1925,.T.);
#1958=EDGE_LOOP('',(#1942,#1950,#1956,#1957));
#1959=FACE_BOUND('',#1958,.T.);
#1960=ADVANCED_FACE('',(#1959),#1941,.T.);
#1961=CARTESIAN_POINT('',(-78.5,38.265227464,1.851057789));
#1962=DIRECTION('',(-0.,-0.,1.));
#1963=DIRECTION('',(0.,-1.,-0.));
#1964=AXIS2_PLACEMENT_3D('',#1961,#1962,#1963);
#1965=PLANE('',#1964);
#1966=ORIENTED_EDGE('',*,*,#82,.F.);
#1967=ORIENTED_EDGE('',*,*,#1908,.F.);
#1968=CARTESIAN_POINT('',(-79.,48.265227464,1.851057789));
#1969=DIRECTION('',(-0.,-1.,-0.));
#1970=VECTOR('',#1969,20.);
#1971=LINE('',#1968,#1970);
#1972=EDGE_CURVE('',#1897,#1944,#1971,.T.);
#1973=ORIENTED_EDGE('',*,*,#1972,.T.);
#1974=ORIENTED_EDGE('',*,*,#1949,.T.);
#1975=EDGE_LOOP('',(#1966,#1967,#1973,#1974));
#1976=FACE_BOUND('',#1975,.T.);
#1977=ADVANCED_FACE('',(#1976),#1965,.T.);
#1978=CARTESIAN_POINT('',(-79.,-0.,-0.));
#1979=DIRECTION('',(1.,-0.,0.));
#1980=DIRECTION('',(0.,1.,0.));
#1981=AXIS2_PLACEMENT_3D('',#1978,#1979,#1980);
#1982=PLANE('',#1981);
#1983=ORIENTED_EDGE('',*,*,#152,.F.);
#1984=ORIENTED_EDGE('',*,*,#114,.F.);
#1985=ORIENTED_EDGE('',*,*,#212,.F.);
#1986=ORIENTED_EDGE('',*,*,#183,.F.);
#1987=EDGE_LOOP('',(#1983,#1984,#1985,#1986));
#1988=FACE_BOUND('',#1987,.T.);
#1989=ORIENTED_EDGE('',*,*,#1902,.F.);
#1990=ORIENTED_EDGE('',*,*,#1931,.F.);
#1991=ORIENTED_EDGE('',*,*,#1955,.F.);
#1992=ORIENTED_EDGE('',*,*,#1972,.F.);
#1993=EDGE_LOOP('',(#1989,#1990,#1991,#1992));
#1994=FACE_BOUND('',#1993,.T.);
#1995=ADVANCED_FACE('',(#1988,#1994),#1982,.T.);
#1996=CLOSED_SHELL('',(#100,#140,#171,#202,#224,#346,#420,#501,#551,#669,#700,#731,#876,#888,#900,#912,#924,#961,#978,#990,#1024,#1054,#1088,#1118,#1152,#1182,
#1216,#1246,#1281,#1291,#1326,#1336,#1371,#1381,#1416,#1426,#1457,#1481,#1505,#1523,#1547,#1571,#1588,#1600,#1620,#1642,#1659,#1676,#1688,#1714,#1723,
#1749,#1758,#1784,#1793,#1819,#1828,#1852,#1869,#1881,#1912,#1936,#1960,#1977,#1995));
#1997=MANIFOLD_SOLID_BREP('housing',#1996);
#1998=COLOUR_RGB('',0.627451003,0.627451003,0.643137276);
#1999=FILL_AREA_STYLE_COLOUR('',#1998);
#2000=FILL_AREA_STYLE('',(#1999));
#2001=SURFACE_STYLE_FILL_AREA(#2000);
#2002=SURFACE_SIDE_STYLE('',(#2001));
#2003=SURFACE_STYLE_USAGE(.BOTH.,#2002);
#2004=PRESENTATION_STYLE_ASSIGNMENT((#2003));
#26=STYLED_ITEM('',(#2004),#1997);
#16=SHAPE_REPRESENTATION('root',(#15),#10);
#17=ADVANCED_BREP_SHAPE_REPRESENTATION('root',(#1997),#10);
#2012=SHAPE_REPRESENTATION_RELATIONSHIP('','',#16,#17);
#2013=CARTESIAN_POINT('',(0.,0.,0.));
#2014=DIRECTION('',(0.,0.,1.));
#2015=DIRECTION('',(1.,0.,0.));
#2016=AXIS2_PLACEMENT_3D('',#2013,#2014,#2015);
#2018=MAPPED_ITEM('',#2017,#2016);
#2017=REPRESENTATION_MAP(#2016,#16);
#2019=APPLICATION_CONTEXT('Managed model based 3d engineering');
#2020=APPLICATION_PROTOCOL_DEFINITION('international standard','ap242_managed_model_based_3d_engineering',2014,#2019);
#2021=PRODUCT_CONTEXT('',#2019,'mechanical');
#2022=PRODUCT_DEFINITION_CONTEXT('part definition',#2019,'design');
#24=PRODUCT('root','root','',(#2021));
#2023=PRODUCT_RELATED_PRODUCT_CATEGORY('part','',(#24));
#2024=PRODUCT_DEFINITION_FORMATION_WITH_SPECIFIED_SOURCE('','',#24,.NOT_KNOWN.);
#25=PRODUCT_DEFINITION('design','',#2024,#2022);
#23=PRODUCT_DEFINITION_SHAPE('','',#25);
#2025=SHAPE_DEFINITION_REPRESENTATION(#23,#16);
#11=DRAUGHTING_MODEL('',(#2018),#10);
#2026=DESCRIPTIVE_REPRESENTATION_ITEM('KEY','C:\\Users\\cybdo\\AppData\\Local\\Packages\\Shapr3D.Shapr3D_j403pzjkqtqbj\\TempState\\1ceaf728-7f7e-4c4f-a653-ea70bcbae5d2.tmp');
#2027=PROPERTY_DEFINITION('KEY','',#25);
#2028=REPRESENTATION('',(#2026),#10);
#2029=PROPERTY_DEFINITION_REPRESENTATION(#2027,#2028);
#2030=GENERAL_PROPERTY('','KEY','');
#2031=GENERAL_PROPERTY_ASSOCIATION('','',#2030,#2027);
#1=MECHANICAL_DESIGN_GEOMETRIC_PRESENTATION_REPRESENTATION('',(#26),#10);
ENDSEC;
END-ISO-10303-21;
